<svg id="svg" version="1.1" viewBox="0 0 300 163.3333333333334" width="300" height="163.3333333333334" xmlns="http://www.w3.org/2000/svg"><svg xmlns="http://www.w3.org/2000/svg"><defs><clipPath id="clip-1"><rect x="0" y="0" transform="scale(0.14648,0.14649)" width="2048" height="1115" fill="none"/></clipPath><linearGradient x1="54.26631" y1="21.74721" x2="87.1292" y2="57.69827" gradientUnits="userSpaceOnUse" id="color-1"><stop offset="0" stop-color="#2a3187"/><stop offset="1" stop-color="#499ab4"/></linearGradient><linearGradient x1="130.17524" y1="101.98987" x2="103.51875" y2="111.21564" gradientUnits="userSpaceOnUse" id="color-2"><stop offset="0" stop-color="#4562a5"/><stop offset="1" stop-color="#3a88ab"/></linearGradient><linearGradient x1="171.38965" y1="102.39447" x2="198.22852" y2="111.67488" gradientUnits="userSpaceOnUse" id="color-3"><stop offset="0" stop-color="#4662a7"/><stop offset="1" stop-color="#3989ab"/></linearGradient><linearGradient x1="137.34697" y1="85.06722" x2="149.45068" y2="95.86817" gradientUnits="userSpaceOnUse" id="color-4"><stop offset="0" stop-color="#6bbbb4"/><stop offset="1" stop-color="#a6cece"/></linearGradient><linearGradient x1="130.27266" y1="48.14686" x2="132.91479" y2="50.82333" gradientUnits="userSpaceOnUse" id="color-5"><stop offset="0" stop-color="#74a5c5"/><stop offset="1" stop-color="#95c8d4"/></linearGradient><linearGradient x1="134.79756" y1="67.62381" x2="136.28071" y2="56.25801" gradientUnits="userSpaceOnUse" id="color-6"><stop offset="0" stop-color="#77b8c4"/><stop offset="1" stop-color="#baf7e9"/></linearGradient><linearGradient x1="171.51855" y1="48.47338" x2="168.86426" y2="51.26059" gradientUnits="userSpaceOnUse" id="color-7"><stop offset="0" stop-color="#79a7c7"/><stop offset="1" stop-color="#94c8d5"/></linearGradient><linearGradient x1="165.31494" y1="68.20302" x2="165.17578" y2="62.26472" gradientUnits="userSpaceOnUse" id="color-8"><stop offset="0" stop-color="#6bacbd"/><stop offset="1" stop-color="#9ddcda"/></linearGradient></defs><g clip-path="url(#clip-1)" fill="none" fill-rule="nonzero" stroke="none" stroke-width="1" stroke-linecap="butt" stroke-linejoin="miter" stroke-miterlimit="10" stroke-dasharray="" stroke-dashoffset="0" font-family="none" font-weight="none" font-size="none" text-anchor="none" style="mix-blend-mode: normal"><path d="M85.12251,12.65012c1.54644,1.17531 4.85376,3.55035 5.92866,5.00072c0.75029,1.01223 1.96274,4.46786 2.48071,5.79357c1.54058,3.94256 3.07134,8.0275 4.66392,11.9437c0.51152,1.25818 2.97275,4.54697 3.89238,5.79357l6.28433,8.50212c1.70464,2.3457 3.47739,5.11504 5.33042,7.30913c0.58198,0.68908 2.52246,1.66131 3.32607,2.17255c2.596,1.65179 6.63574,3.4489 8.97832,5.21275c0.24214,1.04753 2.79946,2.32842 3.81138,2.54024l0.01772,0.12144c-0.33809,0.00703 -0.92388,0.04673 -1.17788,0.28975c0.37866,0.00352 0.75732,0.00015 1.13584,-0.01025c0.22573,0.4377 -0.33252,3.03419 -0.44282,3.63464c-0.19189,0.81432 -0.96006,5.26607 -1.19473,5.64123l-16.42354,-5.69777c-0.68174,0.11909 -4.42236,5.40157 -5.22305,6.33016l-0.03384,0.0583l-0.32212,0.21094c0.21035,1.1489 -2.0165,10.82761 -2.39736,12.67862l-2.0061,9.56621c-0.28579,1.35808 -0.61553,3.29421 -0.94966,4.58476c-4.93169,0.24888 -10.17334,0.94309 -15.13682,1.26741c-2.2437,0.14663 -4.66597,0.49088 -6.90527,0.48165l-0.30088,-0.01333c-0.84316,-0.85871 -2.90435,-4.40106 -3.60981,-5.4962c-1.75225,-2.68628 -3.30923,-5.65177 -5.24194,-8.20241c-1.69146,-2.23217 -4.11738,-4.19349 -6.01494,-6.26306c-0.58579,-0.63898 -1.27925,-1.30608 -1.96963,-1.81908c-2.58823,-0.69171 -19.5501,-4.02679 -20.58003,-4.68994l-0.09756,-0.1336c-1.1332,-1.3156 -2.35913,-3.49358 -3.30469,-5.00386c-1.95088,-3.11593 -3.77988,-6.37146 -5.73823,-9.47831c-7.28247,-2.25898 -14.88574,-3.96512 -22.12334,-6.40721c-0.34786,-0.11734 -0.37289,-0.18545 -0.49312,-0.4922l1.30024,-1.27737c3.94964,-4.42201 9.5134,-9.1912 13.7884,-13.44665c3.0252,-2.6983 5.87461,-6.17312 9.1043,-8.60071c1.51699,-1.14026 4.90093,-2.99171 6.73843,-3.90887c3.40151,-1.69749 8.53696,-5.51407 11.95474,-6.55238c1.91001,-0.58024 6.61069,-0.85387 8.65664,-1.09441l16.60356,-1.90683c2.88735,-0.32169 6.7207,-0.63165 9.53379,-1.12253c-0.53086,-2.24814 -1.18184,-5.37755 -1.84248,-7.5165z" fill="url(#color-1)"/><path d="M88.4335,24.82579l0.196,-0.24346c0.47739,-0.00806 0.28623,-0.05376 0.73154,0.23482c2.18804,4.35932 21.23013,45.52019 22.08867,45.8996l0.28359,0.18077c-0.68174,0.11909 -4.42236,5.40157 -5.22305,6.33016l-0.03384,0.0583l-0.32212,0.21094c0.21035,1.1489 -2.0165,10.82761 -2.39736,12.67862l-2.0061,9.56621c-0.28579,1.35808 -0.61553,3.29421 -0.94966,4.58476c-4.93169,0.24888 -10.17334,0.94309 -15.13682,1.26741c-2.2437,0.14663 -4.66597,0.49088 -6.90527,0.48165l-0.30088,-0.01333c-0.84316,-0.85871 -2.90435,-4.40106 -3.60981,-5.4962c-1.75225,-2.68628 -3.30923,-5.65177 -5.24194,-8.20241c-1.69146,-2.23217 -4.11738,-4.19349 -6.01494,-6.26306c-0.58579,-0.63898 -1.27925,-1.30608 -1.96963,-1.81908c-2.58823,-0.69171 -19.5501,-4.02679 -20.58003,-4.68994c0.30864,-0.77624 2.06543,-3.45651 2.59937,-4.36342c2.67393,-4.5433 5.38623,-9.0639 8.13662,-13.56135c0.87817,-1.46253 3.61992,-6.98188 4.5063,-7.71798c0.10811,0.13081 0.38921,0.44972 0.44824,0.58068c1.23516,1.07595 4.29287,3.11593 5.79639,4.25853c2.84443,2.16303 5.7,4.31171 8.56626,6.44573c1.31558,0.98044 3.50215,2.7024 4.8627,3.46897c2.65752,-8.7888 5.23945,-17.60016 7.74565,-26.43334c0.86177,-3.07199 2.16079,-6.64715 2.81733,-9.67827c0.11309,-1.67625 2.31299,-6.906 1.91279,-7.76529z" fill="#56a6b0"/><path d="M88.4335,24.82579l0.196,-0.24346c0.47739,-0.00806 0.28623,-0.05376 0.73154,0.23482c2.18804,4.35932 21.23013,45.52019 22.08867,45.8996l0.28359,0.18077c-0.68174,0.11909 -4.42236,5.40157 -5.22305,6.33016l-0.27642,-0.04233c-1.5917,-0.31612 -5.03628,-1.44715 -6.77461,-1.95839c-4.5085,-1.33538 -9.03765,-2.59942 -13.58599,-3.79168c-2.2938,-0.6088 -5.56553,-1.54442 -7.87544,-1.89672l6.4689,-25.35094c1.52432,-5.97683 3.16641,-12.13501 4.54277,-18.13366l-0.18384,-0.33384c-0.19028,0.16978 -1.996,6.11218 -2.30493,6.87099c0.11309,-1.67625 2.31299,-6.906 1.91279,-7.76529z" fill="#334d95"/><path d="M88.4335,24.82579l0.196,-0.24346c0.47739,-0.00806 0.28623,-0.05376 0.73154,0.23482c2.18804,4.35932 21.23013,45.52019 22.08867,45.8996l0.28359,0.18077c-0.68174,0.11909 -4.42236,5.40157 -5.22305,6.33016l-0.27642,-0.04233c-0.44209,-1.65604 -1.21421,-3.75198 -1.76235,-5.41622l-4.29111,-12.74688l-10.58101,-32.16011c-0.12642,-0.37428 -0.16802,-0.59049 -0.43096,-0.89665l-0.15894,0.08848l-0.18384,-0.33384c-0.19028,0.16978 -1.996,6.11218 -2.30493,6.87099c0.11309,-1.67625 2.31299,-6.906 1.91279,-7.76529z" fill="#4880aa"/><path d="M77.9978,69.53854c2.30991,0.3523 5.58164,1.28792 7.87544,1.89672c4.54834,1.19226 9.07749,2.4563 13.58599,3.79168c1.73833,0.51124 5.18291,1.64227 6.77461,1.95839l0.27642,0.04233l-0.03384,0.0583l-0.32212,0.21094c0.21035,1.1489 -2.0165,10.82761 -2.39736,12.67862l-2.0061,9.56621c-0.28579,1.35808 -0.61553,3.29421 -0.94966,4.58476c-4.93169,0.24888 -10.17334,0.94309 -15.13682,1.26741c-2.2437,0.14663 -4.66597,0.49088 -6.90527,0.48165l-0.30088,-0.01333c0.24141,-3.10201 -0.03267,-7.68912 -0.0605,-10.89865z" fill="#4271a8"/><path d="M106.1543,77.49691c0.21035,1.1489 -2.0165,10.82761 -2.39736,12.67862l-2.0061,9.56621c-0.28579,1.35808 -0.61553,3.29421 -0.94966,4.58476c-4.93169,0.24888 -10.17334,0.94309 -15.13682,1.26741c-2.2437,0.14663 -4.66597,0.49088 -6.90527,0.48165c8.72739,-9.57016 18.33677,-19.27846 27.39521,-28.57865z" fill="#56a6b0"/><path d="M41.04185,79.59153c0.30864,-0.77624 2.06543,-3.45651 2.59937,-4.36342c2.67393,-4.5433 5.38623,-9.0639 8.13662,-13.56135c0.87817,-1.46253 3.61992,-6.98188 4.5063,-7.71798c0.10811,0.13081 0.38921,0.44972 0.44824,0.58068l-0.40884,0.20684c-0.06694,0.71647 0.81079,4.91318 0.9876,5.81218l3.13037,16.44408c0.24844,1.33684 1.31982,6.27244 1.18037,7.28891c-2.58823,-0.69171 -19.5501,-4.02679 -20.58003,-4.68994z" fill="#4e96af"/><path d="M85.12251,12.65012c1.54644,1.17531 4.85376,3.55035 5.92866,5.00072c0.75029,1.01223 1.96274,4.46786 2.48071,5.79357c1.54058,3.94256 3.07134,8.0275 4.66392,11.9437c0.51152,1.25818 2.97275,4.54697 3.89238,5.79357l6.28433,8.50212c1.70464,2.3457 3.47739,5.11504 5.33042,7.30913c0.58198,0.68908 2.52246,1.66131 3.32607,2.17255c2.596,1.65179 6.63574,3.4489 8.97832,5.21275c0.24214,1.04753 2.79946,2.32842 3.81138,2.54024l0.01772,0.12144c-0.33809,0.00703 -0.92388,0.04673 -1.17788,0.28975c0.37866,0.00352 0.75732,0.00015 1.13584,-0.01025c0.22573,0.4377 -0.33252,3.03419 -0.44282,3.63464c-0.19189,0.81432 -0.96006,5.26607 -1.19473,5.64123l-16.42354,-5.69777l-0.28359,-0.18077c-0.85854,-0.3794 -19.90063,-41.54028 -22.08867,-45.8996c-0.44531,-0.28858 -0.25415,-0.24288 -0.73154,-0.23482l-0.196,0.24346l-0.55752,0.43888c-0.10928,-0.15103 -0.13506,-0.2149 -0.21592,-0.38365c-0.60674,-0.0624 -7.58247,1.74862 -8.64478,2.00219l-42.27437,10.32106c-8.59146,6.33792 -16.93594,13.11896 -25.56333,19.42436c-0.13819,0.10093 -0.4183,0.17183 -0.59246,0.17036c3.94964,-4.42201 9.5134,-9.1912 13.7884,-13.44665c3.0252,-2.6983 5.87461,-6.17312 9.1043,-8.60071c1.51699,-1.14026 4.90093,-2.99171 6.73843,-3.90887c3.40151,-1.69749 8.53696,-5.51407 11.95474,-6.55238c1.91001,-0.58024 6.61069,-0.85387 8.65664,-1.09441l16.60356,-1.90683c2.88735,-0.32169 6.7207,-0.63165 9.53379,-1.12253c-0.53086,-2.24814 -1.18184,-5.37755 -1.84248,-7.5165z" fill="#56a6b0"/><path d="M128.65854,67.32966c0.37866,0.00352 0.75732,0.00015 1.13584,-0.01025c0.22573,0.4377 -0.33252,3.03419 -0.44282,3.63464c-0.19189,0.81432 -0.96006,5.26607 -1.19473,5.64123l-16.42354,-5.69777l-0.28359,-0.18077c0.25796,-0.06475 2.73472,-0.33941 3.28975,-0.42877c2.36133,-0.4005 4.71021,-0.87131 7.04341,-1.41199c1.20557,-0.27833 5.96836,-1.60535 6.87568,-1.54632z" fill="#7fc4bf"/><path d="M85.36802,26.99937l0.05537,0.32564c-0.41953,0.47667 -1.86167,1.90639 -2.07466,2.25019c-2.38257,1.90111 -5.21499,4.59912 -7.53193,6.67616l-13.18652,11.88129c-1.85815,1.70013 -4.47056,4.30306 -6.34614,5.81613c-0.88638,0.7361 -3.62812,6.25545 -4.5063,7.71798c-2.75039,4.49745 -5.4627,9.01805 -8.13662,13.56135c-0.53394,0.9069 -2.29072,3.58718 -2.59937,4.36342l-0.09756,-0.1336c-1.1332,-1.3156 -2.35913,-3.49358 -3.30469,-5.00386c-1.95088,-3.11593 -3.77988,-6.37146 -5.73823,-9.47831c-7.28247,-2.25898 -14.88574,-3.96512 -22.12334,-6.40721c-0.34786,-0.11734 -0.37289,-0.18545 -0.49312,-0.4922l1.30024,-1.27737c0.17416,0.00146 0.45426,-0.06943 0.59246,-0.17036c8.62739,-6.3054 16.97187,-13.08644 25.56333,-19.42436c4.26826,3.8072 8.55688,7.59156 12.86572,11.35291c1.24175,1.09763 3.57539,2.98102 4.64355,4.04495c1.52446,-1.48318 5.03115,-4.18177 6.7749,-5.6131l11.27271,-9.356l8.6458,-7.12382c1.23179,-1.00739 3.13755,-2.66929 4.42441,-3.50984z" fill="#56a6b0"/><path d="M10.58514,56.79898c0.17416,0.00146 0.45426,-0.06943 0.59246,-0.17036c8.62739,-6.3054 16.97187,-13.08644 25.56333,-19.42436c4.26826,3.8072 8.55688,7.59156 12.86572,11.35291c1.24175,1.09763 3.57539,2.98102 4.64355,4.04495c-2.42798,-0.42921 -7.02627,-1.36936 -9.33486,-1.42854c-0.88682,-0.02271 -5.94375,1.11316 -7.17202,1.37156l-18.03516,3.72927c-1.97241,0.40987 -8.89084,2.09711 -10.42326,1.80194z" fill="#4271a8"/><path d="M31.90137,64.97576c0.94292,-0.78268 3.53511,-3.58235 4.44243,-4.59648c2.77412,-3.10055 5.47778,-5.8923 8.37422,-8.86863c-0.6835,6.17429 -1.57119,12.4085 -2.4438,18.56155c-0.30483,2.14985 -0.85942,7.4855 -1.32993,9.38573c-1.1332,-1.3156 -2.35913,-3.49358 -3.30469,-5.00386c-1.95088,-3.11593 -3.77988,-6.37146 -5.73823,-9.47831z" fill="#7fc4bf"/><path d="M85.36802,26.99937c0.38599,-0.44664 1.27075,-1.06482 1.78579,-1.40965c-0.78574,1.21497 -2.5144,3.34723 -3.80508,3.98548c0.21299,-0.34381 1.65513,-1.77352 2.07466,-2.25019z" fill="#4880aa"/><path d="M174.97559,64.04996c0.42188,-0.41969 1.88965,-1.02233 2.51074,-1.39119c2.67627,-1.5869 5.38916,-3.15636 8.02881,-4.80259c1.41504,-0.88273 2.64551,-2.95655 3.62695,-4.33822c1.51318,-2.14589 3.03809,-4.28358 4.57471,-6.41292l4.87646,-6.66136c0.76904,-1.04358 2.29248,-2.99962 2.87842,-4.07264c0.88477,-1.62044 1.76074,-4.10955 2.45215,-5.88381l3.23145,-8.12726c0.46436,-1.18596 1.53223,-4.25253 2.28809,-5.04839c1.4502,-1.52581 4.02393,-3.3366 5.73193,-4.6303c-0.55078,2.468 -1.23486,5.01791 -1.86035,7.47684l24.04248,2.79351c3.38818,0.40284 7.64648,0.84098 10.97168,1.44861c0.81445,0.14868 5.50049,2.87686 6.53906,3.46091l7.125,3.94197c1.01221,0.56002 3.30908,1.79418 4.18799,2.45234c1.39014,1.04255 3.27686,2.96666 4.56006,4.21341c2.39355,2.30249 4.77246,4.6205 7.13525,6.9539l7.9541,7.68091c1.27588,1.22053 2.50635,2.25254 3.73975,3.54338c0.48633,0.38878 1.04883,0.74855 1.11328,1.40569c-0.20361,0.24668 -0.20361,0.22896 -0.49805,0.30704c-7.66406,3.0254 -14.4624,4.45688 -22.0166,6.86688c-1.04443,1.78568 -8.15186,13.45486 -9.16699,14.36791l-0.01611,0.1166c-0.75439,0.52633 -6.6123,1.59129 -7.77246,1.88178c-3.89209,0.9551 -9.1582,1.74598 -12.88623,3.00782c-0.9873,0.33428 -7.3374,7.00019 -7.95703,8.02619c-2.64551,4.38041 -6.12744,9.02933 -8.5752,13.44123c-0.38965,-0.0082 -1.27588,0.01055 -1.58789,-0.12085c-1.13965,-0.01055 -2.43604,-0.1522 -3.58594,-0.24478c-5.1709,-0.41661 -10.27881,-1.03508 -15.46729,-1.29348c-0.13037,-1.10349 -1.19238,-5.41666 -1.46631,-6.67045c-0.99756,-4.51723 -1.94385,-9.04544 -2.83887,-13.58391c-0.15967,-0.78693 -1.04004,-4.59575 -1.05615,-5.06363c-0.08496,-0.1834 -0.56543,-0.85651 -0.78809,-1.29773l-0.00879,-0.23804l-0.00732,-0.33751l0.07031,-0.657c-0.78662,-0.18531 -3.91113,-5.03418 -4.60107,-5.74699c-0.42041,0.16582 -0.8833,0.3668 -1.31689,0.47579l-15.54785,5.52286c-0.54639,-1.89115 -0.75879,-4.80478 -1.32568,-6.76112c-0.05127,-0.96125 -0.37354,-1.86273 -0.37646,-2.93751l0.11865,-0.20757c1.19385,-0.42657 2.94434,-1.45916 2.96631,-2.85636z" fill="#4e96af"/><path d="M174.97559,64.04996c0.42188,-0.41969 1.88965,-1.02233 2.51074,-1.39119c2.67627,-1.5869 5.38916,-3.15636 8.02881,-4.80259c1.41504,-0.88273 2.64551,-2.95655 3.62695,-4.33822c1.51318,-2.14589 3.03809,-4.28358 4.57471,-6.41292l4.87646,-6.66136c0.76904,-1.04358 2.29248,-2.99962 2.87842,-4.07264c0.88477,-1.62044 1.76074,-4.10955 2.45215,-5.88381l3.23145,-8.12726c0.46436,-1.18596 1.53223,-4.25253 2.28809,-5.04839c1.4502,-1.52581 4.02393,-3.3366 5.73193,-4.6303c-0.55078,2.468 -1.23486,5.01791 -1.86035,7.47684l24.04248,2.79351c3.38818,0.40284 7.64648,0.84098 10.97168,1.44861c0.81445,0.14868 5.50049,2.87686 6.53906,3.46091l7.125,3.94197c1.01221,0.56002 3.30908,1.79418 4.18799,2.45234c1.39014,1.04255 3.27686,2.96666 4.56006,4.21341c2.39355,2.30249 4.77246,4.6205 7.13525,6.9539l7.9541,7.68091c1.27588,1.22053 2.50635,2.25254 3.73975,3.54338c0.48633,0.38878 1.04883,0.74855 1.11328,1.40569c-0.20361,0.24668 -0.20361,0.22896 -0.49805,0.30704c-7.66406,3.0254 -14.4624,4.45688 -22.0166,6.86688c-1.04443,1.78568 -8.15186,13.45486 -9.16699,14.36791l-0.01611,0.1166c-0.27979,-0.18194 -0.5874,-0.39845 -0.74854,-0.69611c-3.41162,-6.31155 -7.12939,-12.44585 -10.71387,-18.6597c-1.36963,-2.13359 -2.48437,-5.23384 -4.31543,-6.99579c-2.27637,-2.18984 -4.72559,-4.42289 -7.06348,-6.53743l-17.54004,-15.69421c-0.89355,-0.81183 -5.33789,-4.68701 -5.80225,-5.31207l0.08789,-0.28506c-0.22559,-0.23892 -0.3999,-0.39888 -0.64746,-0.61569l0.05859,-0.22574c-0.37939,-0.20186 -0.96094,-0.31041 -1.33594,-0.08584c-2.96045,5.61823 -5.74951,11.91777 -8.48877,17.67223l-13.29785,27.74001c0.50684,-0.0293 1.09863,-0.16787 1.4165,0.09522c-0.01318,0.34835 -0.02051,0.37164 -0.1377,0.70285c-0.42041,0.16582 -0.8833,0.3668 -1.31689,0.47579l-15.54785,5.52286c-0.54639,-1.89115 -0.75879,-4.80478 -1.32568,-6.76112c-0.05127,-0.96125 -0.37354,-1.86273 -0.37646,-2.93751l0.11865,-0.20757c1.19385,-0.42657 2.94434,-1.45916 2.96631,-2.85636z" fill="#56a6b0"/><path d="M174.97559,64.04996c0.42188,-0.41969 1.88965,-1.02233 2.51074,-1.39119c2.67627,-1.5869 5.38916,-3.15636 8.02881,-4.80259c1.41504,-0.88273 2.64551,-2.95655 3.62695,-4.33822c1.51318,-2.14589 3.03809,-4.28358 4.57471,-6.41292l4.87646,-6.66136c0.76904,-1.04358 2.29248,-2.99962 2.87842,-4.07264c0.88477,-1.62044 1.76074,-4.10955 2.45215,-5.88381l3.23145,-8.12726c0.46436,-1.18596 1.53223,-4.25253 2.28809,-5.04839c1.4502,-1.52581 4.02393,-3.3366 5.73193,-4.6303c-0.55078,2.468 -1.23486,5.01791 -1.86035,7.47684l24.04248,2.79351c3.38818,0.40284 7.64648,0.84098 10.97168,1.44861c0.81445,0.14868 5.50049,2.87686 6.53906,3.46091l7.125,3.94197c1.01221,0.56002 3.30908,1.79418 4.18799,2.45234c1.39014,1.04255 3.27686,2.96666 4.56006,4.21341c2.39355,2.30249 4.77246,4.6205 7.13525,6.9539l7.9541,7.68091c1.27588,1.22053 2.50635,2.25254 3.73975,3.54338c-1.38281,-0.00615 -23.31885,-17.36636 -26.30127,-19.4897c-1.5791,-0.48312 -3.83203,-0.9759 -5.50049,-1.39529l-11.23535,-2.79644l-34.23193,-8.27624c-0.37939,-0.20186 -0.96094,-0.31041 -1.33594,-0.08584c-2.96045,5.61823 -5.74951,11.91777 -8.48877,17.67223l-13.29785,27.74001c0.50684,-0.0293 1.09863,-0.16787 1.4165,0.09522c-0.01318,0.34835 -0.02051,0.37164 -0.1377,0.70285c-0.42041,0.16582 -0.8833,0.3668 -1.31689,0.47579l-15.54785,5.52286c-0.54639,-1.89115 -0.75879,-4.80478 -1.32568,-6.76112c-0.05127,-0.96125 -0.37354,-1.86273 -0.37646,-2.93751l0.11865,-0.20757c1.19385,-0.42657 2.94434,-1.45916 2.96631,-2.85636z" fill="#56a6b0"/><path d="M171.89063,67.11389c1.2627,-0.31788 10.65527,2.5499 12.76465,2.71133c0.38086,0.02915 4.02539,0.78971 4.27881,0.92609l0.20654,0.53834l-15.54785,5.52286c-0.54639,-1.89115 -0.75879,-4.80478 -1.32568,-6.76112c-0.05127,-0.96125 -0.37354,-1.86273 -0.37646,-2.93751z" fill="#7fc4bf"/><path d="M212.30127,24.68941l34.23193,8.27624l11.23535,2.79644c1.66846,0.41939 3.92139,0.91218 5.50049,1.39529c-1.3125,1.45652 -4.91748,4.44296 -6.49658,5.81584l-10.93359,9.57705c-9.5127,-7.72237 -18.71924,-15.83689 -28.36523,-23.40413c-1.51758,-1.18948 -3.00879,-2.5127 -4.5835,-3.61531c-0.22559,-0.23892 -0.3999,-0.39888 -0.64746,-0.61569z" fill="#334d95"/><path d="M263.26904,37.15738c2.98242,2.12333 24.91846,19.48354 26.30127,19.4897c0.48633,0.38878 1.04883,0.74855 1.11328,1.40569c-0.20361,0.24668 -0.20361,0.22896 -0.49805,0.30704l-0.31055,-0.25972c-11.20605,-2.01068 -23.29687,-5.00342 -34.59814,-6.93588c-1.01514,-0.17344 -7.75488,1.14831 -9.43799,1.38606l10.93359,-9.57705c1.5791,-1.37288 5.18408,-4.35932 6.49658,-5.81584z" fill="#4271a8"/><path d="M255.28564,51.56118l8.38623,8.89778c1.45166,1.53841 3.14063,3.17672 4.49707,4.76772c-1.04443,1.78568 -8.15186,13.45486 -9.16699,14.36791c-0.40723,-0.87175 -3.53027,-25.81223 -3.71631,-28.03342z" fill="#7fc4bf"/><path d="M210.96533,24.60357c0.09229,0.42672 0.22266,0.7068 0.0835,1.07507c0.21533,2.39521 2.53857,10.82673 3.2124,13.48181l7.87939,30.49675c-5.92236,1.12795 -12.06738,3.14157 -17.93115,4.62665c-0.79102,0.20025 -9.22559,2.93326 -9.22119,2.93399l0.07031,-0.657c-0.78662,-0.18531 -3.91113,-5.03418 -4.60107,-5.74699c0.11719,-0.33121 0.12451,-0.3545 0.1377,-0.70285c-0.31787,-0.26309 -0.90967,-0.12451 -1.4165,-0.09522l13.29785,-27.74001c2.73926,-5.75446 5.52832,-12.054 8.48877,-17.67223z" fill="#334d95"/><path d="M210.96533,24.60357c0.09229,0.42672 0.22266,0.7068 0.0835,1.07507c-0.30908,0.14942 -0.31201,0.35142 -0.41895,0.68834c-4.15576,13.00617 -8.5415,25.941 -12.73828,38.93295c-0.70166,2.17358 -0.46729,3.29098 -1.72705,5.44332c-0.4292,0.73375 -0.95361,4.80713 -1.10596,5.8176c-0.78662,-0.18531 -3.91113,-5.03418 -4.60107,-5.74699c0.11719,-0.33121 0.12451,-0.3545 0.1377,-0.70285c-0.31787,-0.26309 -0.90967,-0.12451 -1.4165,-0.09522l13.29785,-27.74001c2.73926,-5.75446 5.52832,-12.054 8.48877,-17.67223z" fill="#4880aa"/><path d="M222.14063,69.6572l-0.38525,21.23319c-0.03076,2.12612 -0.06592,14.41215 -0.44238,15.03209c-0.50537,-0.05625 -0.60205,-0.05127 -1.10596,0.0249c-1.13965,-0.01055 -2.43604,-0.1522 -3.58594,-0.24478c-5.1709,-0.41661 -10.27881,-1.03508 -15.46729,-1.29348c-0.13037,-1.10349 -1.19238,-5.41666 -1.46631,-6.67045c-0.99756,-4.51723 -1.94385,-9.04544 -2.83887,-13.58391c-0.15967,-0.78693 -1.04004,-4.59575 -1.05615,-5.06363c-0.08496,-0.1834 -0.56543,-0.85651 -0.78809,-1.29773l-0.00879,-0.23804l-0.00732,-0.33751c-0.00439,-0.00073 8.43018,-2.73375 9.22119,-2.93399c5.86377,-1.48509 12.00879,-3.4987 17.93115,-4.62665z" fill="#4271a8"/><path d="M195.79248,79.09113c1.1748,1.31839 2.30859,2.61231 3.55518,3.86521c0.95801,0.96286 2.06982,1.86464 2.99414,2.83292l9.89795,10.54503c1.98193,2.07587 3.95068,4.16463 5.90479,6.26585c0.7002,0.74958 2.45654,2.71412 3.16846,3.32233c-0.50537,-0.05625 -0.60205,-0.05127 -1.10596,0.0249c-1.13965,-0.01055 -2.43604,-0.1522 -3.58594,-0.24478c-5.1709,-0.41661 -10.27881,-1.03508 -15.46729,-1.29348c-0.13037,-1.10349 -1.19238,-5.41666 -1.46631,-6.67045c-0.99756,-4.51723 -1.94385,-9.04544 -2.83887,-13.58391c-0.15967,-0.78693 -1.04004,-4.59575 -1.05615,-5.06363z" fill="#56a6b0"/><path d="M168.01172,67.86947c0.73242,-0.19864 2.5166,-0.73375 3.18311,-0.52047c0.63135,0.53981 0.59619,1.96908 1.07227,2.7024c0.56689,1.95634 0.7793,4.86997 1.32568,6.76112l15.54785,-5.52286c0.43359,-0.10899 0.89648,-0.30997 1.31689,-0.47579c0.68994,0.71281 3.81445,5.56168 4.60107,5.74699l-0.07031,0.657l0.00732,0.33751l0.00879,0.23804c0.22266,0.44122 0.70313,1.11433 0.78809,1.29773c0.01611,0.46788 0.89648,4.2767 1.05615,5.06363c0.89502,4.53847 1.84131,9.06668 2.83887,13.58391c0.27393,1.25378 1.33594,5.56696 1.46631,6.67045c-4.87646,3.44978 -9.78369,7.65176 -14.54297,11.30677c-1.88086,1.44436 -8.0332,6.02751 -9.29883,7.69835c-0.75879,1.00197 -4.69189,10.31593 -5.3335,11.97929c-0.49805,0.64982 -3.8291,1.43396 -4.8252,1.78363c-0.60791,0.13111 -8.17529,3.54206 -8.56787,3.92542c-2.61914,2.55459 -5.21777,6.46434 -7.57764,9.42631c-2.69824,-2.74371 -4.82578,-7.02949 -7.67168,-9.506c-1.20879,-1.05193 -6.18149,-2.80831 -7.76909,-3.61575c-1.05293,-0.53556 -5.09868,-1.41331 -5.68521,-2.17651c-1.38589,-3.43088 -3.56528,-8.35124 -5.11831,-11.70463c-0.34702,-0.74914 -4.6812,-3.98196 -5.72109,-4.81416l-13.12119,-10.4318c-1.68501,-1.32761 -3.4645,-2.59751 -5.12007,-3.95355c0.33413,-1.29055 0.66387,-3.22668 0.94966,-4.58476l2.0061,-9.56621c0.38086,-1.85101 2.60771,-11.52972 2.39736,-12.67862l0.32212,-0.21094l0.03384,-0.0583c0.80068,-0.92858 4.54131,-6.21106 5.22305,-6.33016l16.42354,5.69777c0.23467,-0.37515 1.00283,-4.8269 1.19473,-5.64123c0.63735,-0.70797 0.35083,-2.40708 0.89546,-3.14186c0.30366,0.09419 1.10347,1.44158 1.6519,2.01918l0.127,-0.25855c0.33384,0.27525 1.8019,2.66797 2.22173,3.22946c1.86167,2.48999 4.15122,6.19641 6.11074,8.52497c1.25332,0.59401 7.69336,3.5803 8.60889,4.21766c0.50244,0.24112 1.39307,0.79147 1.70947,0.92975l0.15088,-0.05025c-0.17578,-0.6088 -0.03662,-6.57274 -0.00439,-7.43115l-0.1377,-0.05449c0.00732,-1.39998 -0.19922,-2.51035 -0.14795,-3.94476c2.34668,-0.01274 4.68018,-0.35054 6.93457,-1.00373c1.40479,-1.62132 2.86523,-3.20529 4.28027,-4.83013c1.47803,-0.7046 5.6001,-0.81213 6.25928,-1.2907z" fill="#4e96af"/><path d="M129.35156,70.95405c0.63735,-0.70797 0.35083,-2.40708 0.89546,-3.14186c0.30366,0.09419 1.10347,1.44158 1.6519,2.01918l0.127,-0.25855c0.33384,0.27525 1.8019,2.66797 2.22173,3.22946c1.86167,2.48999 4.15122,6.19641 6.11074,8.52497c-1.7439,2.68204 -4.37021,8.95389 -6.36167,11.21463l0.15381,0.23394l0.02754,0.19644c-0.20361,3.99383 -0.38467,7.98868 -0.54331,11.98457c-0.04556,1.09968 -0.26367,4.41293 -0.18296,5.33141c0.05127,0.51153 0.11001,0.346 -0.13799,0.7068l0.57056,0.09112c0.5647,1.17014 3.16069,4.26659 4.07813,5.39015c-1.27529,2.69009 -2.76694,5.90783 -3.89868,8.65535c-0.78691,1.70467 -3.06797,8.62166 -3.77036,9.56357l-0.17798,0.05068l-0.23364,0.48473c-1.38589,-3.43088 -3.56528,-8.35124 -5.11831,-11.70463c-0.34702,-0.74914 -4.6812,-3.98196 -5.72109,-4.81416l-13.12119,-10.4318c-1.68501,-1.32761 -3.4645,-2.59751 -5.12007,-3.95355c0.33413,-1.29055 0.66387,-3.22668 0.94966,-4.58476l2.0061,-9.56621c0.38086,-1.85101 2.60771,-11.52972 2.39736,-12.67862l0.32212,-0.21094l0.03384,-0.0583c0.80068,-0.92858 4.54131,-6.21106 5.22305,-6.33016l16.42354,5.69777c0.23467,-0.37515 1.00283,-4.8269 1.19473,-5.64123z" fill="url(#color-2)"/><path d="M129.35156,70.95405c0.63735,-0.70797 0.35083,-2.40708 0.89546,-3.14186c0.30366,0.09419 1.10347,1.44158 1.6519,2.01918l0.127,-0.25855c0.33384,0.27525 1.8019,2.66797 2.22173,3.22946c1.86167,2.48999 4.15122,6.19641 6.11074,8.52497c-1.7439,2.68204 -4.37021,8.95389 -6.36167,11.21463l0.15381,0.23394l0.02754,0.19644c-0.20361,3.99383 -0.38467,7.98868 -0.54331,11.98457c-0.04556,1.09968 -0.26367,4.41293 -0.18296,5.33141l-0.22266,-0.42569l-0.2833,0.06592c-1.19355,-1.29114 -2.6272,-3.15343 -3.76714,-4.55195l-6.38188,-7.79283l-9.83789,-12.10761c-0.85181,-1.04563 -6.17988,-7.29668 -6.28184,-8.09987l-0.20068,-0.09024l0.03384,-0.0583c0.80068,-0.92858 4.54131,-6.21106 5.22305,-6.33016l16.42354,5.69777c0.23467,-0.37515 1.00283,-4.8269 1.19473,-5.64123z" fill="#4271a8"/><path d="M133.22915,109.86254l-0.2833,0.06592c-1.19355,-1.29114 -2.6272,-3.15343 -3.76714,-4.55195l-6.38188,-7.79283l-9.83789,-12.10761c-0.85181,-1.04563 -6.17988,-7.29668 -6.28184,-8.09987c4.41064,1.46927 8.80605,2.98395 13.1855,4.54374c1.97681,0.69728 5.41787,1.81498 7.19004,2.70533c2.16167,8.38698 4.22065,16.80004 6.17651,25.23727z" fill="#334d95"/><path d="M129.35156,70.95405c0.63735,-0.70797 0.35083,-2.40708 0.89546,-3.14186c0.30366,0.09419 1.10347,1.44158 1.6519,2.01918l0.127,-0.25855c0.33384,0.27525 1.8019,2.66797 2.22173,3.22946c1.86167,2.48999 4.15122,6.19641 6.11074,8.52497c-1.7439,2.68204 -4.37021,8.95389 -6.36167,11.21463c-0.64863,-1.81278 -5.37729,-15.49352 -5.83989,-15.94661c0.23467,-0.37515 1.00283,-4.8269 1.19473,-5.64123z" fill="#56a6b0"/><path d="M133.31382,110.99503l0.57056,0.09112c0.5647,1.17014 3.16069,4.26659 4.07813,5.39015c-1.27529,2.69009 -2.76694,5.90783 -3.89868,8.65535c-0.78691,1.70467 -3.06797,8.62166 -3.77036,9.56357l-0.17798,0.05068c0.00615,-0.86091 -0.29106,-2.43154 -0.3668,-3.35969c-0.22573,-2.76714 -0.81401,-6.02561 -0.96445,-8.75672c1.48228,-3.84383 2.99604,-7.67549 4.54146,-11.49457z" fill="#56a6b0"/><path d="M133.32568,111.13493c0.31699,0.93649 0.09946,13.11808 0.13081,15.10738c-0.85078,-0.67164 -4.42998,-3.01295 -4.67227,-3.61282c1.48228,-3.84383 2.99604,-7.67549 4.54146,-11.49457z" fill="#7fc4bf"/><path d="M190.45752,70.81386c0.68994,0.71281 3.81445,5.56168 4.60107,5.74699l-0.07031,0.657l0.00732,0.33751l0.00879,0.23804c0.22266,0.44122 0.70313,1.11433 0.78809,1.29773c0.01611,0.46788 0.89648,4.2767 1.05615,5.06363c0.89502,4.53847 1.84131,9.06668 2.83887,13.58391c0.27393,1.25378 1.33594,5.56696 1.46631,6.67045c-4.87646,3.44978 -9.78369,7.65176 -14.54297,11.30677c-1.88086,1.44436 -8.0332,6.02751 -9.29883,7.69835c-0.75879,1.00197 -4.69189,10.31593 -5.3335,11.97929l-0.16699,-0.92697c-0.04687,0.06563 -0.18018,0.16436 -0.25049,0.22207c-0.48779,-0.57819 -2.61182,-7.05029 -3.23145,-8.43401l0.01318,-0.10005l-0.03076,-0.20157l-0.00732,-15.01861l0.13623,-0.07515c-0.12012,-0.27144 -0.06885,-0.35684 0.00293,-0.64513l0.03369,-0.2417c-0.36035,-2.59546 -0.38379,-5.8362 -0.49512,-8.47575c-0.12012,-2.82442 -0.25342,-5.64533 -0.38965,-8.46931c0.48047,-0.71383 1.47656,-3.45739 1.81055,-4.35961c1.45898,-3.92762 2.71875,-7.9276 4.18945,-11.85522l15.54785,-5.52286c0.43359,-0.10899 0.89648,-0.30997 1.31689,-0.47579z" fill="url(#color-3)"/><path d="M190.45752,70.81386c0.68994,0.71281 3.81445,5.56168 4.60107,5.74699l-0.07031,0.657l0.00732,0.33751l0.00879,0.23804c-2.73779,3.49123 -25.40479,31.85396 -26.56055,32.42071l0.03369,-0.2417c-0.36035,-2.59546 -0.38379,-5.8362 -0.49512,-8.47575c-0.12012,-2.82442 -0.25342,-5.64533 -0.38965,-8.46931c0.48047,-0.71383 1.47656,-3.45739 1.81055,-4.35961c1.45898,-3.92762 2.71875,-7.9276 4.18945,-11.85522l15.54785,-5.52286c0.43359,-0.10899 0.89648,-0.30997 1.31689,-0.47579z" fill="#4271a8"/><path d="M194.99561,77.55535l0.00879,0.23804c-2.73779,3.49123 -25.40479,31.85396 -26.56055,32.42071l0.03369,-0.2417c0.75,-2.27949 1.73877,-6.87245 2.33203,-9.33197l3.88623,-15.96638c4.85156,-1.82362 9.82471,-3.39484 14.68066,-5.22491c1.7124,-0.64542 3.84961,-1.45506 5.61914,-1.89379z" fill="#334d95"/><path d="M168.30469,110.93439l0.13623,-0.07515c1.37842,3.30343 3.63428,8.6032 4.77393,11.89433c-0.64746,0.47389 -4.39014,3.28981 -4.87207,3.401l-0.03076,-0.20157z" fill="#7fc4bf"/><path d="M168.34277,126.15457c0.48193,-0.11118 4.22461,-2.92711 4.87207,-3.401c-0.40869,2.29399 -0.62256,4.91494 -0.92139,7.24834c-0.11279,0.87541 -0.49658,3.67859 -0.48193,4.46464c-0.04687,0.06563 -0.18018,0.16436 -0.25049,0.22207c-0.48779,-0.57819 -2.61182,-7.05029 -3.23145,-8.43401z" fill="#4e96af"/><path d="M168.00439,111.19338l0.30029,-0.25899l0.00732,15.01861l0.03076,0.20157l-0.01318,0.10005c0.61963,1.38372 2.74365,7.85582 3.23145,8.43401c0.07031,-0.05772 0.20361,-0.15645 0.25049,-0.22207l0.16699,0.92697c-0.49805,0.64982 -3.8291,1.43396 -4.8252,1.78363c-0.60791,0.13111 -8.17529,3.54206 -8.56787,3.92542c-2.61914,2.55459 -5.21777,6.46434 -7.57764,9.42631c-2.69824,-2.74371 -4.82578,-7.02949 -7.67168,-9.506c-1.20879,-1.05193 -6.18149,-2.80831 -7.76909,-3.61575c-1.05293,-0.53556 -5.09868,-1.41331 -5.68521,-2.17651l0.23364,-0.48473l0.17798,-0.05068c0.70239,-0.94191 2.98345,-7.8589 3.77036,-9.56357c0.0312,0.34381 -0.02417,0.30279 0.15059,0.54127c1.76895,-0.07178 5.70718,-3.03785 7.8958,-3.46706c2.88398,-0.56544 5.13296,0.03779 8.06851,-0.52999l0.06592,-0.29927l0.20508,0.05435l0.18311,0.19322c1.19971,0.29576 14.49316,-9.88028 17.13281,-10.64362z" fill="#4271a8"/><path d="M168.00439,111.19338l0.30029,-0.25899l0.00732,15.01861c-1.33447,-2.32373 -3.08643,-6.93617 -4.37256,-9.60488c1.37109,-1.70482 2.72607,-3.42312 4.06494,-5.15474z" fill="#56a6b0"/><path d="M168.32959,126.25462c0.61963,1.38372 2.74365,7.85582 3.23145,8.43401c0.07031,-0.05772 0.20361,-0.15645 0.25049,-0.22207l0.16699,0.92697c-0.49805,0.64982 -3.8291,1.43396 -4.8252,1.78363c-0.01025,-0.04512 -0.02051,-0.09038 -0.03223,-0.13506c-0.39258,-1.45257 1.00195,-8.5616 1.2085,-10.78747z" fill="#4880aa"/><path d="M134.17808,92.97226c1.58101,2.46084 3.02725,5.17188 4.47832,7.72325c3.6041,6.33689 7.37329,12.57842 10.88218,18.96923c0.24902,0.45514 0.68115,1.15154 1.01514,1.54002l-0.104,0.22618l-0.20508,-0.05435l-0.06592,0.29927c-2.93555,0.56778 -5.18452,-0.03545 -8.06851,0.52999c-2.18862,0.42921 -6.12686,3.39528 -7.8958,3.46706c-0.17476,-0.23848 -0.11938,-0.19746 -0.15059,-0.54127c1.13174,-2.74752 2.62339,-5.96526 3.89868,-8.65535c-0.91743,-1.12356 -3.51343,-4.22001 -4.07812,-5.39015l-0.57056,-0.09112c0.248,-0.3608 0.18926,-0.19527 0.13799,-0.7068c-0.08071,-0.91848 0.1374,-4.23172 0.18296,-5.33141c0.15864,-3.99588 0.3397,-7.99074 0.54331,-11.98457z" fill="#4e96af"/><path d="M133.88437,111.08615c1.72866,0.33077 14.13369,8.88753 16.36025,10.29044l-0.06592,0.29927c-2.93555,0.56778 -5.18452,-0.03545 -8.06851,0.52999c-2.18862,0.42921 -6.12686,3.39528 -7.8958,3.46706c-0.17476,-0.23848 -0.11938,-0.19746 -0.15059,-0.54127c1.13174,-2.74752 2.62339,-5.96526 3.89868,-8.65535c-0.91743,-1.12356 -3.51343,-4.22001 -4.07812,-5.39015z" fill="#4271a8"/><path d="M140.3584,81.32726c1.25332,0.59401 7.69336,3.5803 8.60889,4.21766c0.09082,0.069 1.52637,1.15388 1.5249,1.14729c0.24756,0.62755 -0.0835,0.86193 0.35156,1.46385l0.08496,0.03164c0.39111,0.30748 0.55078,0.38892 0.68115,0.88229c-0.04248,0.58273 -0.25488,0.80597 -0.69873,1.16706c-0.0293,1.0843 -0.23437,5.18477 0.2168,5.93186c0.36914,0.2231 0.60059,0.15791 1.03857,0.12949c-0.4585,0.54772 -0.45264,1.45477 -0.84375,1.85145l-1.37549,-0.14546l-0.01318,0.07105c-0.0498,0.24375 -0.0542,0.28961 -0.16992,0.52106c-0.28125,-0.04966 -0.28857,-0.10591 -0.45703,0.01187c0.05127,1.75887 -0.40869,2.69961 1.8501,2.94308c-0.27246,0.1084 -1.0415,0.04614 -1.38135,0.03457c-1.55127,-1.43089 -1.10889,-1.81527 -1.99219,-3.61033c-1.68384,-3.41857 -2.82788,-2.5354 -5.97524,-2.44897c-0.31172,0.0085 -1.36494,-0.38087 -1.75195,-0.52589c-1.8687,-0.83205 -3.90967,-1.85995 -5.90596,-2.225l-0.15381,-0.23394c1.99146,-2.26074 4.61777,-8.53259 6.36167,-11.21463z" fill="url(#color-4)"/><path d="M145.41006,89.46668c1.2252,1.32717 2.57871,2.54258 3.60557,4.01727c0.41309,0.5921 0.39551,2.28447 0.77344,2.30044l0.41016,-0.45968c0.24316,0.22881 0.18164,0.29019 0.26953,0.6942c0.22705,-0.92932 0.07178,-4.51005 0.12451,-5.75886l0.31787,-0.023c-0.0293,1.0843 -0.23437,5.18477 0.2168,5.93186c0.36914,0.2231 0.60059,0.15791 1.03857,0.12949c-0.4585,0.54772 -0.45264,1.45477 -0.84375,1.85145l-1.37549,-0.14546l-0.01318,0.07105c-0.0498,0.24375 -0.0542,0.28961 -0.16992,0.52106c-0.28125,-0.04966 -0.28857,-0.10591 -0.45703,0.01187c-0.09229,-0.0397 -3.27334,-4.31581 -3.67456,-4.79746c-0.75806,0.00103 -1.4458,-0.02857 -2.2002,-0.06577l-0.02798,-0.34937l2.45757,0.0334c0.67368,0.84186 2.81382,4.09915 3.49644,4.24842l0.18311,-0.21358c0,-0.84025 -0.23291,-1.27942 -0.38232,-1.99955c-0.55518,-2.66329 -2.17969,-3.80178 -4.03916,-5.76486z" fill="#e2f0f2"/><path d="M150.92871,88.1877c0.39111,0.30748 0.55078,0.38892 0.68115,0.88229c-0.04248,0.58273 -0.25488,0.80597 -0.69873,1.16706l-0.31787,0.023c-0.5332,-0.56984 -0.7251,-0.6841 -0.55664,-1.47542c0.2915,-0.39537 0.44824,-0.4254 0.89209,-0.59694z" fill="#f9fcfc"/><path d="M145.12002,89.69959c-0.50229,0.09492 -0.56338,0.09756 -1.027,-0.11338c-0.32007,-0.4443 -0.24946,-0.23321 -0.24653,-0.80407c0.20845,-0.4377 0.23394,-0.52999 0.6457,-0.77213c0.89941,0.02681 1.01631,0.70036 0.91787,1.45667z" fill="#f9fcfc"/><path d="M143.43237,93.74513c-0.27261,0.26661 -0.39521,0.36622 -0.70679,0.58654c-0.59165,0.06504 -0.36782,0.10957 -0.8707,-0.12657c-0.2874,-0.49059 -0.22031,-0.26719 -0.21855,-0.87072c0.29004,-0.46876 0.12056,-0.32447 0.64746,-0.53336c0.48618,-0.00938 0.7481,0.28316 1.12061,0.59474z" fill="#f9fcfc"/><path d="M134.15054,92.77582c1.99629,0.36505 4.03726,1.39295 5.90596,2.225c1.35557,1.28894 4.53047,0.9195 6.66665,3.04913c-0.13623,0.31246 -0.16553,0.35714 -0.36782,0.63268c0.00073,0.85798 1.28335,2.3813 1.63638,3.31691c0.18018,0.4774 1.84717,1.09514 2.44629,1.18655c0.14795,0.27481 0.17432,0.41573 0.20654,0.72526l0.10693,-0.19278c0.18018,0.76232 -0.11719,17.32286 -0.19775,17.48619c-0.33398,-0.38848 -0.76611,-1.08488 -1.01514,-1.54002c-3.50889,-6.3908 -7.27808,-12.63233 -10.88218,-18.96923c-1.45107,-2.55137 -2.89731,-5.26241 -4.47832,-7.72325z" fill="#56a6b0"/><path d="M168.01172,67.86947l0.13477,0.00439c0.70313,0.0189 1.63623,-0.10357 2.32031,-0.28126c-0.64893,0.56354 -1.85596,1.33098 -2.64404,1.70262l0.1626,0.11206c0.46289,-0.09741 1.50146,-0.98776 2.25439,-1.20486c0.3208,-0.02446 0.36035,-0.03691 0.6123,-0.23804c-1.08105,1.45462 -2.10645,3.04503 -3.09961,4.56601c-1.97461,3.02364 -4.37402,5.91984 -6.27539,8.96326c-3.26074,1.50399 -7.53223,3.32951 -10.64941,4.93076c-0.17578,-0.6088 -0.03662,-6.57274 -0.00439,-7.43115l-0.1377,-0.05449c0.00732,-1.39998 -0.19922,-2.51035 -0.14795,-3.94476c2.34668,-0.01274 4.68018,-0.35054 6.93457,-1.00373c1.40479,-1.62132 2.86523,-3.20529 4.28027,-4.83013c1.47803,-0.7046 5.6001,-0.81213 6.25928,-1.2907z" fill="#334d95"/><path d="M168.01172,67.86947l0.13477,0.00439c0.70313,0.0189 1.63623,-0.10357 2.32031,-0.28126c-0.64893,0.56354 -1.85596,1.33098 -2.64404,1.70262l0.1626,0.11206c0.46289,-0.09741 1.50146,-0.98776 2.25439,-1.20486c-1.50293,1.52523 -5.95898,3.85818 -7.99805,5.32906c-1.73291,1.25086 -4.45459,3.26872 -6.20361,4.33339c-0.28564,0.17388 -4.48096,0.95773 -5.21484,1.12839l-0.1377,-0.05449c0.00732,-1.39998 -0.19922,-2.51035 -0.14795,-3.94476c2.34668,-0.01274 4.68018,-0.35054 6.93457,-1.00373c1.40479,-1.62132 2.86523,-3.20529 4.28027,-4.83013c1.47803,-0.7046 5.6001,-0.81213 6.25928,-1.2907z" fill="#4880aa"/><path d="M167.59277,93.02734c0.13623,2.82398 0.26953,5.64489 0.38965,8.46931c0.11133,2.63955 0.13477,5.88029 0.49512,8.47575l-0.03369,0.2417c-0.07178,0.28829 -0.12305,0.37369 -0.00293,0.64513l-0.13623,0.07515l-0.30029,0.25899l-0.23877,-0.21285c-2.63965,0.76335 -15.93311,10.93938 -17.13281,10.64362c0.95801,-0.3649 12.1084,-20.82126 13.73145,-23.04714c0.50537,-0.69347 2.7583,-4.54286 3.22852,-5.54967z" fill="#4880aa"/><path d="M148.96729,85.54492c0.50244,0.24112 1.39307,0.79147 1.70947,0.92975c0.01025,0.686 -0.09814,0.61466 0.23877,1.07859c0.97852,0.3879 1.69336,0.27657 2.24121,1.09924c0.06885,0.92375 -0.99023,1.94755 -1.61719,2.5354c-0.00439,0.84523 -0.14502,2.92037 0.32666,3.48625c0.7207,-0.10415 0.89502,-1.447 1.35059,-2.01332c0.74121,-0.92331 2.67188,-2.26088 3.19336,-3.25905c0.06152,0.08775 0.13916,0.16289 0.22852,0.22178c-1.05322,1.20793 -2.60742,2.71529 -3.38965,4.12596c-0.34717,0.62506 -0.45117,2.61172 0.05273,3.0985c0.88916,-1.14143 1.76953,-2.29004 2.63965,-3.44567c0.61523,-0.00571 1.7959,-0.05186 2.3584,0.04951c0.41016,0.64235 0.51855,0.72379 1.14844,1.16662c-0.39844,0.15132 -1.04297,0.11602 -1.39307,-0.13902c0.20947,-0.15059 0.25195,-0.15279 0.48779,-0.23833c-0.55518,-0.4317 -1.60107,-0.28565 -2.37012,-0.26807c-1.71826,2.63238 -1.83545,5.01939 -3.15967,7.76998c-0.36035,0.75177 -1.92627,0.45133 -2.5752,1.44305c-0.59912,-0.09141 -2.26611,-0.70914 -2.44629,-1.18655c-0.35303,-0.93561 -1.63564,-2.45894 -1.63638,-3.31691c0.20229,-0.27554 0.23159,-0.32022 0.36782,-0.63268c-2.13618,-2.12963 -5.31108,-1.76019 -6.66665,-3.04913c0.38701,0.14502 1.44023,0.53439 1.75195,0.52589c3.14736,-0.08643 4.29141,-0.9696 5.97524,2.44897c0.8833,1.79506 0.44092,2.17944 1.99219,3.61033c0.33984,0.01157 1.10889,0.07383 1.38135,-0.03457c-2.25879,-0.24346 -1.79883,-1.1842 -1.8501,-2.94308c0.16846,-0.11778 0.17578,-0.06152 0.45703,-0.01187c0.11572,-0.23145 0.12012,-0.2773 0.16992,-0.52106l0.01318,-0.07105l1.37549,0.14546c0.39111,-0.39669 0.38525,-1.30374 0.84375,-1.85145c-0.43799,0.02842 -0.66943,0.09361 -1.03857,-0.12949c-0.45117,-0.74709 -0.24609,-4.84756 -0.2168,-5.93186c0.44385,-0.36109 0.65625,-0.58434 0.69873,-1.16706c-0.13037,-0.49337 -0.29004,-0.57482 -0.68115,-0.88229l-0.08496,-0.03164c-0.43506,-0.60192 -0.104,-0.8363 -0.35156,-1.46385c0.00146,0.00659 -1.43408,-1.07829 -1.5249,-1.14729z" fill="#7fc4bf"/><path d="M152.1665,96.2984l0.21387,0.08965c-0.1084,0.65963 -0.50537,1.79579 -0.37793,2.22251l0.18164,-0.01567c0.29883,-0.42862 0.30762,-0.62184 0.71045,-0.71999c-0.0249,0.39054 -0.2373,0.7443 -0.29443,1.13645c-0.20947,1.43528 0.06152,1.94652 -1.44287,2.54009c-2.25879,-0.24346 -1.79883,-1.1842 -1.8501,-2.94308c0.16846,-0.11778 0.17578,-0.06152 0.45703,-0.01187c0.11572,-0.23145 0.12012,-0.2773 0.16992,-0.52106l0.01318,-0.07105l1.37549,0.14546c0.39111,-0.39669 0.38525,-1.30374 0.84375,-1.85145z" fill="#f9fcfc"/><path d="M157.94238,88.74977c0.06592,0.53248 0.10107,0.31832 -0.14648,0.80788c-1.50586,0.87702 -5.67334,3.87107 -4.28467,5.91149c1.37695,-0.04219 0.9917,-2.36269 3.33984,-2.38965c-0.10254,-0.13521 -0.19482,-0.26675 -0.26953,-0.4191c0.91992,-0.1607 1.15576,0.99377 2.34668,-0.06563c0.40723,-0.36241 1.95703,0.17886 1.84424,0.96491c0.03369,0.57892 -0.19482,1.33025 -0.32666,1.8119c0.28711,-0.00571 0.49072,-0.11133 0.76172,-0.21036c-2.71875,1.68665 -4.01074,0.97399 -6.27979,2.98277c-0.11133,5.57413 -3.16553,4.05784 -4.17627,5.57457l-0.10693,0.19278c-0.03223,-0.30953 -0.05859,-0.45045 -0.20654,-0.72526c0.64893,-0.99172 2.21484,-0.69127 2.5752,-1.44305c1.32422,-2.75059 1.44141,-5.1376 3.15967,-7.76998c0.76904,-0.01758 1.81494,-0.16363 2.37012,0.26807c-0.23584,0.08555 -0.27832,0.08775 -0.48779,0.23833c0.3501,0.25503 0.99463,0.29034 1.39307,0.13902c-0.62988,-0.44283 -0.73828,-0.52428 -1.14844,-1.16662c-0.5625,-0.10137 -1.74316,-0.05523 -2.3584,-0.04951c-0.87012,1.15564 -1.75049,2.30425 -2.63965,3.44567c-0.50391,-0.48678 -0.3999,-2.47344 -0.05273,-3.0985c0.78223,-1.41067 2.33643,-2.91803 3.38965,-4.12596c0.28711,0.1878 0.65771,0.18604 0.94189,-0.00469c0.28418,-0.19058 0.42773,-0.53292 0.36182,-0.86911z" fill="#56a6b0"/><path d="M158.2998,93.45186c0.7002,-0.58668 1.16748,-0.97897 1.91895,-0.18487c0.1084,0.73258 -0.12598,0.98278 -0.77051,1.35149c-0.62988,-0.44283 -0.73828,-0.52428 -1.14844,-1.16662z" fill="#f9fcfc"/><path d="M156.41016,89.40178c-0.20068,-0.28433 -0.20801,-0.66183 -0.01904,-0.95378c0.18896,-0.29195 0.53613,-0.43961 0.87744,-0.37325c0.34131,0.06636 0.60791,0.33355 0.67383,0.67501c0.06592,0.33619 -0.07764,0.67853 -0.36182,0.86911c-0.28418,0.19073 -0.65479,0.19248 -0.94189,0.00469c-0.08936,-0.05889 -0.16699,-0.13404 -0.22852,-0.22178z" fill="#e2f0f2"/><path d="M177.45264,14.08929l0.36768,-0.35475l0.2168,0.04336c1.09863,3.30324 2.04053,6.66908 3.18457,9.96182c0.52881,1.52435 0.95215,2.47373 0.57715,4.1308l-1.10742,11.19002c-0.16699,1.69339 -0.37061,4.60497 -0.78955,6.17898c-0.19629,0.73273 -2.72754,4.03646 -3.32959,4.54374c-1.33301,1.99164 -2.74072,3.47424 -4.00928,5.29464c-0.00586,2.96915 -0.40283,7.11489 -0.67529,10.10543l-0.10547,1.5828c1.05908,-0.86603 2.12988,-1.96483 3.19336,-2.71617c-0.02197,1.3972 -1.77246,2.42978 -2.96631,2.85636l-0.11865,0.20757c0.00293,1.07478 0.3252,1.97626 0.37646,2.93751c-0.47607,-0.73332 -0.44092,-2.16259 -1.07227,-2.7024c-0.6665,-0.21329 -2.45068,0.32183 -3.18311,0.52047c-0.65918,0.47857 -4.78125,0.5861 -6.25928,1.2907c-1.41504,1.62484 -2.87549,3.2088 -4.28027,4.83013c-2.25439,0.65319 -4.58789,0.99099 -6.93457,1.00373c-0.104,0.00586 -0.20654,0.0082 -0.30908,0.00674c-1.81055,-0.0249 -4.9311,-0.8215 -6.34028,-1.96601c-0.75366,-0.61217 -1.552,-1.61297 -2.25161,-2.33281c-0.63354,-0.48341 -1.41709,-1.37903 -1.98135,-1.98197c-0.63604,-0.28931 -7.21538,-1.03816 -8.4438,-1.13747l-0.42656,-0.09741l-0.02739,0.11675c0.5332,0.78957 0.93252,1.10188 1.26841,1.97099l-0.127,0.25855c-0.54844,-0.5776 -1.34824,-1.92499 -1.6519,-2.01918c-0.54463,0.73478 -0.25811,2.43389 -0.89546,3.14186c0.1103,-0.60045 0.66855,-3.19694 0.44282,-3.63464c-0.37852,0.0104 -0.75718,0.01377 -1.13584,0.01025c0.254,-0.24302 0.83979,-0.28272 1.17788,-0.28975l-0.01772,-0.12144c-1.01191,-0.21182 -3.56924,-1.49271 -3.81138,-2.54024c0.89751,0.39581 2.89834,1.79169 4.09043,2.398c-0.09287,-2.43037 -0.63076,-6.03762 -0.56411,-8.2881c0.0082,-1.22522 -0.30088,-2.3498 -0.30337,-3.72664c-1.27427,-1.62703 -2.5311,-3.26755 -3.77051,-4.92124c-0.68745,-0.71164 -3.45029,-4.10955 -3.5436,-4.86455c-0.76787,-6.21326 -1.51274,-12.96178 -1.80806,-19.16918c-0.02666,-0.56061 3.55137,-11.30406 3.91597,-11.94435l0.26118,-0.04144l0.40664,0.39516c3.43418,3.13802 8.20518,7.37619 11.09531,10.90478c1.99893,2.44048 4.0481,9.46235 6.29458,12.02353c1.75913,-0.71427 5.61108,-1.76283 7.58862,-2.35683c0.28564,-0.07998 1.00342,-0.27261 1.26855,-0.225c2.81836,0.50597 6.27832,1.66805 9.02051,2.49292c0.81006,-1.07654 1.40479,-2.44297 2.01709,-3.64431c1.40332,-2.75381 2.69971,-5.65075 4.27002,-8.30598c0.80566,-1.36219 9.53027,-9.68574 11.20605,-11.0157z" fill="#56a6b0"/><path d="M125.45977,49.84025c-0.68745,-0.71164 -3.45029,-4.10955 -3.5436,-4.86455c-0.76787,-6.21326 -1.51274,-12.96178 -1.80806,-19.16918c-0.02666,-0.56061 3.55137,-11.30406 3.91597,-11.94435l0.26118,-0.04144l0.40664,0.39516c3.43418,3.13802 8.20518,7.37619 11.09531,10.90478c1.99893,2.44048 4.0481,9.46235 6.29458,12.02353c1.75913,-0.71427 5.61108,-1.76283 7.58862,-2.35683c0.68848,0.11851 0.95361,0.16743 0.9126,1.08283c-0.07471,1.68109 -0.12744,3.34548 -0.08203,5.02993c-0.09668,1.58792 0.25781,5.94812 0.0835,7.10551c-0.36035,0.35538 -0.80273,0.53395 -0.84082,0.84318l0.09961,-0.02959c0.27393,-0.07881 0.38086,-0.13843 0.65479,-0.05874c0.23584,0.59327 -0.15674,1.84178 -0.03662,2.53936c0.6123,3.56521 0.56104,6.94174 0.31348,10.55368c-0.2915,4.2474 -0.27686,8.49597 -0.28271,12.76402l-0.09668,0.14868c-1.11475,0.1563 -5.25557,-1.00212 -6.27041,-1.76883c-0.66606,-0.50318 -1.52344,-2.27041 -2.48848,-2.29546c-0.63354,-0.48341 -1.41709,-1.37903 -1.98135,-1.98197c-0.63604,-0.28931 -7.21538,-1.03816 -8.4438,-1.13747l-0.42656,-0.09741l-0.02739,0.11675c0.5332,0.78957 0.93252,1.10188 1.26841,1.97099l-0.127,0.25855c-0.54844,-0.5776 -1.34824,-1.92499 -1.6519,-2.01918c-0.54463,0.73478 -0.25811,2.43389 -0.89546,3.14186c0.1103,-0.60045 0.66855,-3.19694 0.44282,-3.63464c-0.37852,0.0104 -0.75718,0.01377 -1.13584,0.01025c0.254,-0.24302 0.83979,-0.28272 1.17788,-0.28975l-0.01772,-0.12144c-1.01191,-0.21182 -3.56924,-1.49271 -3.81138,-2.54024c0.89751,0.39581 2.89834,1.79169 4.09043,2.398c-0.09287,-2.43037 -0.63076,-6.03762 -0.56411,-8.2881c0.0082,-1.22522 -0.30088,-2.3498 -0.30337,-3.72664c-1.27427,-1.62703 -2.5311,-3.26755 -3.77051,-4.92124z" fill="#7fc4bf"/><path d="M125.45977,49.84025c-0.68745,-0.71164 -3.45029,-4.10955 -3.5436,-4.86455c-0.76787,-6.21326 -1.51274,-12.96178 -1.80806,-19.16918c-0.02666,-0.56061 3.55137,-11.30406 3.91597,-11.94435l0.26118,-0.04144l0.40664,0.39516c3.43418,3.13802 8.20518,7.37619 11.09531,10.90478c1.99893,2.44048 4.0481,9.46235 6.29458,12.02353l-0.00615,0.11763c-0.03838,0.85197 0.2543,2.4522 0.11953,3.00255l-0.09492,-0.06211c-0.05654,-0.74049 -0.08774,-1.36175 -0.25371,-2.09155c-0.73682,1.06379 -1.53486,2.2143 -2.28486,3.25436c-0.79541,1.1032 -3.35859,3.83533 -3.64805,4.99917l0.24229,0.28155l-0.1752,0.46217c0.71543,0.90236 3.60791,2.15996 4.67417,3.205c-0.94644,-0.18487 -4.07461,-2.37925 -5.07656,-3.05001c-0.6627,0.83761 -6.00205,7.42105 -6.01128,7.80807l0.05186,0.08555c-0.22061,1.52171 0.63062,2.30717 -0.08525,3.33156c0.0082,-1.22522 -0.30088,-2.3498 -0.30337,-3.72664c-1.27427,-1.62703 -2.5311,-3.26755 -3.77051,-4.92124z" fill="#4880aa"/><path d="M124.69189,14.21589c3.43418,3.13802 8.20518,7.37619 11.09531,10.90478c1.99893,2.44048 4.0481,9.46235 6.29458,12.02353l-0.00615,0.11763c-0.03838,0.85197 0.2543,2.4522 0.11953,3.00255l-0.09492,-0.06211c-0.05654,-0.74049 -0.08774,-1.36175 -0.25371,-2.09155c-0.73682,1.06379 -1.53486,2.2143 -2.28486,3.25436c-0.79541,1.1032 -3.35859,3.83533 -3.64805,4.99917l-0.18809,0.09112c-0.54155,-0.52223 -0.41411,-4.38305 -1.20747,-5.06978c-0.14941,-0.54068 -0.3791,-2.37764 -0.47285,-3.00548l-0.848,-5.55348c-0.13564,-0.91423 -0.26748,-2.17182 -0.57334,-3.01559c-0.8666,-2.39053 -7.99644,-13.89227 -7.93198,-15.59515z" fill="#4e96af"/><path d="M134.51807,41.38559c0.79336,0.68673 0.66592,4.54755 1.20747,5.06978l0.18809,-0.09112l0.24229,0.28155l-0.1752,0.46217c0.71543,0.90236 3.60791,2.15996 4.67417,3.205c-0.94644,-0.18487 -4.07461,-2.37925 -5.07656,-3.05001c-0.6627,0.83761 -6.00205,7.42105 -6.01128,7.80807l0.05186,0.08555c-0.22061,1.52171 0.63062,2.30717 -0.08525,3.33156c0.0082,-1.22522 -0.30088,-2.3498 -0.30337,-3.72664c-1.27427,-1.62703 -2.5311,-3.26755 -3.77051,-4.92124l0.16216,-0.07456c0.56572,0.28682 1.47275,2.00263 2.15596,2.5354c0.6498,-1.31839 1.23691,-2.50347 2.0896,-3.70437c1.23486,-1.73954 3.47241,-1.83871 5.0269,-2.93106c-0.04907,-1.48597 -0.34131,-2.66578 -0.37632,-4.28007z" fill="url(#color-5)"/><path d="M135.57832,47.26295c1.00195,0.67077 4.13013,2.86514 5.07656,3.05001c0.45264,0.07236 2.43604,1.38255 2.7854,1.84222c0.62461,0.8215 0.4418,3.43483 0.6999,4.05433c0.09902,1.27195 0.27056,2.911 0.21855,4.15277c-0.95508,1.17776 -4.28086,7.05805 -4.70347,8.35769c-0.63604,-0.28931 -7.21538,-1.03816 -8.4438,-1.13747l-0.42656,-0.09741l-0.02739,0.11675c0.5332,0.78957 0.93252,1.10188 1.26841,1.97099l-0.127,0.25855c-0.54844,-0.5776 -1.34824,-1.92499 -1.6519,-2.01918c-0.54463,0.73478 -0.25811,2.43389 -0.89546,3.14186c0.1103,-0.60045 0.66855,-3.19694 0.44282,-3.63464c-0.37852,0.0104 -0.75718,0.01377 -1.13584,0.01025c0.254,-0.24302 0.83979,-0.28272 1.17788,-0.28975l-0.01772,-0.12144c-1.01191,-0.21182 -3.56924,-1.49271 -3.81138,-2.54024c0.89751,0.39581 2.89834,1.79169 4.09043,2.398c-0.09287,-2.43037 -0.63076,-6.03762 -0.56411,-8.2881c0.71587,-1.02439 -0.13535,-1.80985 0.08525,-3.33156l-0.05186,-0.08555c0.00923,-0.38702 5.34858,-6.97045 6.01128,-7.80807z" fill="#c1fbee"/><path d="M129.6189,55.15657c0.91069,1.26243 2.9729,5.69118 3.75542,7.30635c2.94785,-0.08833 6.54756,-0.12554 9.44077,-0.38306c0.44004,-0.70021 0.77036,-1.23914 1.29683,-1.88778c-0.05684,-1.10949 -0.37866,-3.13263 0.02827,-3.98255c0.09902,1.27195 0.27056,2.911 0.21855,4.15277c-0.95508,1.17776 -4.28086,7.05805 -4.70347,8.35769c-0.63604,-0.28931 -7.21538,-1.03816 -8.4438,-1.13747l-0.42656,-0.09741l-0.02739,0.11675c0.5332,0.78957 0.93252,1.10188 1.26841,1.97099l-0.127,0.25855c-0.54844,-0.5776 -1.34824,-1.92499 -1.6519,-2.01918c-0.54463,0.73478 -0.25811,2.43389 -0.89546,3.14186c0.1103,-0.60045 0.66855,-3.19694 0.44282,-3.63464c-0.37852,0.0104 -0.75718,0.01377 -1.13584,0.01025c0.254,-0.24302 0.83979,-0.28272 1.17788,-0.28975l-0.01772,-0.12144c-1.01191,-0.21182 -3.56924,-1.49271 -3.81138,-2.54024c0.89751,0.39581 2.89834,1.79169 4.09043,2.398c-0.09287,-2.43037 -0.63076,-6.03762 -0.56411,-8.2881c0.71587,-1.02439 -0.13535,-1.80985 0.08525,-3.33156z" fill="url(#color-6)"/><path d="M177.45264,14.08929l0.36768,-0.35475l0.2168,0.04336c1.09863,3.30324 2.04053,6.66908 3.18457,9.96182c0.52881,1.52435 0.95215,2.47373 0.57715,4.1308l-1.10742,11.19002c-0.16699,1.69339 -0.37061,4.60497 -0.78955,6.17898c-0.19629,0.73273 -2.72754,4.03646 -3.32959,4.54374c-1.33301,1.99164 -2.74072,3.47424 -4.00928,5.29464l-0.26074,-0.13023c-1.86035,-2.58257 -4.03125,-5.23018 -5.99854,-7.76793l-0.14209,-0.23453c-0.44092,-0.51461 -0.92725,-0.9006 -0.69873,-1.56419c-0.2915,-0.90998 -2.97949,-3.92029 -3.67236,-4.90806c-0.58154,-0.83117 -1.16602,-1.7369 -1.72119,-2.61685c-0.09961,0.59664 -0.20654,1.10862 -0.34277,1.69867c-0.03809,-0.76422 0.12891,-1.72518 0.23291,-2.49951c0.81006,-1.07654 1.40479,-2.44297 2.01709,-3.64431c1.40332,-2.75381 2.69971,-5.65075 4.27002,-8.30598c0.80566,-1.36219 9.53027,-9.68574 11.20605,-11.0157z" fill="#4880aa"/><path d="M177.45264,14.08929l0.36768,-0.35475l0.2168,0.04336c1.09863,3.30324 2.04053,6.66908 3.18457,9.96182c0.52881,1.52435 0.95215,2.47373 0.57715,4.1308c-0.02051,-0.40284 0.00293,-1.06335 -0.19336,-1.37039c-1.75928,-0.0958 -9.81738,2.85094 -12.09961,3.55027l-0.11279,0.12114l-0.10547,-0.04204c-0.98145,2.43184 -1.25537,7.7297 -1.86182,10.4923c-0.34717,1.5806 -0.20801,3.40803 -0.65771,5.13497c-0.09961,-0.79411 0.14209,-2.4957 0.24023,-3.36862c-0.6709,1.37713 -0.36328,3.06686 -0.76172,3.61619l-0.2373,0.02476l-0.54639,-0.64806c-0.2915,-0.90998 -2.97949,-3.92029 -3.67236,-4.90806c-0.58154,-0.83117 -1.16602,-1.7369 -1.72119,-2.61685c-0.09961,0.59664 -0.20654,1.10862 -0.34277,1.69867c-0.03809,-0.76422 0.12891,-1.72518 0.23291,-2.49951c0.81006,-1.07654 1.40479,-2.44297 2.01709,-3.64431c1.40332,-2.75381 2.69971,-5.65075 4.27002,-8.30598c0.80566,-1.36219 9.53027,-9.68574 11.20605,-11.0157z" fill="#4e96af"/><path d="M177.45264,14.08929l0.36768,-0.35475l0.2168,0.04336c1.09863,3.30324 2.04053,6.66908 3.18457,9.96182c0.52881,1.52435 0.95215,2.47373 0.57715,4.1308c-0.02051,-0.40284 0.00293,-1.06335 -0.19336,-1.37039c-1.75928,-0.0958 -9.81738,2.85094 -12.09961,3.55027l-0.11279,0.12114l-0.10547,-0.04204c0.20508,-0.81095 1.31689,-2.58535 1.66113,-3.30798c0.92139,-1.93451 6.46875,-11.41488 6.50391,-12.73224z" fill="#4271a8"/><path d="M165.46289,45.38103l0.54639,0.64806l0.2373,-0.02476c0.39844,-0.54933 0.09082,-2.23906 0.76172,-3.61619c-0.09814,0.87292 -0.33984,2.57451 -0.24023,3.36862l0.02783,0.52208c0.41895,0.25694 2.67627,0.84391 3.62109,1.36658c2.39648,1.32439 2.59131,3.00035 4.06641,4.38275c0.33545,-0.12759 1.48535,-1.92499 1.93506,-2.3854l0.15381,0.14048c-1.33301,1.99164 -2.74072,3.47424 -4.00928,5.29464l-0.26074,-0.13023c-1.86035,-2.58257 -4.03125,-5.23018 -5.99854,-7.76793l-0.14209,-0.23453c-0.44092,-0.51461 -0.92725,-0.9006 -0.69873,-1.56419z" fill="url(#color-7)"/><path d="M158.22803,52.42648c2.38184,-1.60023 5.93994,-3.62497 8.07568,-5.24674c1.96729,2.53775 4.13818,5.18536 5.99854,7.76793l0.26074,0.13023c-0.00586,2.96915 -0.40283,7.11489 -0.67529,10.10543l-0.10547,1.5828c1.05908,-0.86603 2.12988,-1.96483 3.19336,-2.71617c-0.02197,1.3972 -1.77246,2.42978 -2.96631,2.85636l-0.11865,0.20757c0.00293,1.07478 0.3252,1.97626 0.37646,2.93751c-0.47607,-0.73332 -0.44092,-2.16259 -1.07227,-2.7024c-0.6665,-0.21329 -2.45068,0.32183 -3.18311,0.52047c-0.65918,0.47857 -4.78125,0.5861 -6.25928,1.2907c0.06738,-0.09668 0.14648,-0.20464 0.18896,-0.31539c0.22266,-0.59005 -2.53711,-5.35426 -2.99121,-6.24856l0.21387,-0.34161c-0.20215,-0.19673 -1.30078,-1.7202 -1.53369,-2.03573c0.12598,-2.57598 0.37939,-5.21656 0.59766,-7.79239z" fill="#c1fbee"/><path d="M172.30225,54.94768l0.26074,0.13023c-0.00586,2.96915 -0.40283,7.11489 -0.67529,10.10543l-0.10547,1.5828c1.05908,-0.86603 2.12988,-1.96483 3.19336,-2.71617c-0.02197,1.3972 -1.77246,2.42978 -2.96631,2.85636l-0.11865,0.20757c0.00293,1.07478 0.3252,1.97626 0.37646,2.93751c-0.47607,-0.73332 -0.44092,-2.16259 -1.07227,-2.7024c-0.6665,-0.21329 -2.45068,0.32183 -3.18311,0.52047c-0.65918,0.47857 -4.78125,0.5861 -6.25928,1.2907c0.06738,-0.09668 0.14648,-0.20464 0.18896,-0.31539c0.22266,-0.59005 -2.53711,-5.35426 -2.99121,-6.24856l0.21387,-0.34161c2.48584,-0.19029 6.61523,0.10767 9.2959,0.10767c0.3252,-0.7276 0.55957,-1.19329 0.95947,-1.88236c1.021,-1.89144 1.92627,-3.59802 2.88281,-5.53224z" fill="url(#color-8)"/><path d="M172.30225,54.94768l0.26074,0.13023c-0.00586,2.96915 -0.40283,7.11489 -0.67529,10.10543c-0.2959,0.12129 -0.14941,0.46187 -0.4248,0.94763c-0.97412,-0.90778 -1.43408,-2.24638 -2.51514,-2.95978c-0.69434,-0.45865 0.37061,-1.65077 0.47168,-2.69126c1.021,-1.89144 1.92627,-3.59802 2.88281,-5.53224z" fill="#7fc4bf"/><path d="M166.16162,46.94522l0.14209,0.23453c-2.13574,1.62176 -5.69385,3.64651 -8.07568,5.24674c-0.21826,2.57583 -0.47168,5.21641 -0.59766,7.79239c0.23291,0.31553 1.33154,1.839 1.53369,2.03573l-0.21387,0.34161c-0.19922,-0.31802 -1.19531,-1.68871 -1.22021,-1.82333c-0.17285,-0.93122 -0.93311,-3.79973 -0.80859,-4.55239c0.4541,-2.7421 0.4541,-4.30775 2.82861,-6.11526c0.82617,-0.62843 1.51318,-1.08562 2.50049,-1.41844c1.88525,-0.63502 2.34229,-0.5587 3.91113,-1.74159z" fill="#7fc4bf"/><path d="M132.02593,69.57282c-0.33589,-0.86911 -0.73521,-1.18142 -1.26841,-1.97099l0.02739,-0.11675l0.42656,0.09741c1.22842,0.09932 7.80776,0.84816 8.4438,1.13747c0.56426,0.60294 1.3478,1.49857 1.98135,1.98197c0.69961,0.71984 1.49795,1.72064 2.25161,2.33281c1.40918,1.14451 4.52974,1.9411 6.34028,1.96601c0.10254,0.00146 0.20508,-0.00088 0.30908,-0.00674c-0.05127,1.4344 0.15527,2.54478 0.14795,3.94476l0.1377,0.05449c-0.03223,0.85842 -0.17139,6.82235 0.00439,7.43115l-0.15088,0.05025c-0.31641,-0.13828 -1.20703,-0.68864 -1.70947,-0.92975c-0.91553,-0.63737 -7.35557,-3.62366 -8.60889,-4.21766c-1.95952,-2.32856 -4.24907,-6.03498 -6.11074,-8.52497c-0.41982,-0.56149 -1.88789,-2.95421 -2.22173,-3.22946z" fill="#4271a8"/><path d="M131.21147,67.5825c1.22842,0.09932 7.80776,0.84816 8.4438,1.13747c0.56426,0.60294 1.3478,1.49857 1.98135,1.98197c0.69961,0.71984 1.49795,1.72064 2.25161,2.33281c1.40918,1.14451 4.52974,1.9411 6.34028,1.96601c0.10254,0.00146 0.20508,-0.00088 0.30908,-0.00674c-0.05127,1.4344 0.15527,2.54478 0.14795,3.94476c-0.87158,-0.07412 -4.58584,-1.06936 -5.34609,-1.55687c-1.73613,-1.25496 -3.86323,-2.58667 -5.51631,-3.90154c-2.10747,-1.67625 -7.08003,-3.94256 -8.61167,-5.89787z" fill="#4e96af"/></g></svg></svg>