<svg id="svg" version="1.1" viewBox="0 0 300 163.3333333333334" width="300" height="163.3333333333334" xmlns="http://www.w3.org/2000/svg"><svg xmlns="http://www.w3.org/2000/svg"><defs><clipPath id="clip-1"><rect x="0" y="0" transform="scale(0.14648,0.14649)" width="2048" height="1115" fill="none"/></clipPath></defs><g clip-path="url(#clip-1)" fill="none" fill-rule="nonzero" stroke="none" stroke-width="1" stroke-linecap="butt" stroke-linejoin="miter" stroke-miterlimit="10" stroke-dasharray="" stroke-dashoffset="0" font-family="none" font-weight="none" font-size="none" text-anchor="none" style="mix-blend-mode: normal"><path d="M204.57129,32.97927c0.68408,-1.22317 1.54395,-3.81834 2.05078,-5.22125l3.3252,-9.30854c0.29883,-0.8363 1.2627,-3.72766 1.74316,-4.27114c1.26855,-1.43776 4.42969,-4.07388 5.99268,-5.17364c-0.52295,1.94134 -1.79736,6.29369 -2.02734,8.09285c7.32861,0.59987 15.52002,1.76913 22.92627,2.62549c2.9707,0.32886 5.93848,0.68161 8.90332,1.05822c1.03857,0.13096 4.05762,0.46012 4.90137,0.77946c1.5835,0.59884 4.01367,2.26967 5.57813,3.14581c2.5957,1.44451 5.1709,2.92711 7.72266,4.44721c4.46777,2.61392 5.6543,3.5447 9.43945,7.09248c2.50342,2.32973 4.98486,4.68144 7.4458,7.05483c2.85645,2.7191 5.67627,5.47467 8.4624,8.26569c1.29639,1.29216 2.95313,2.80494 4.11475,4.20082c0.2915,0.27877 1.00781,0.89035 1.10156,1.22244l-0.07471,0.11338c-7.83545,2.35962 -15.73242,4.5017 -23.58545,6.80829c-0.479,0.81139 -1.42676,2.5502 -2.08447,3.15856c-0.35596,0.33048 -1.09863,0.29576 -1.6084,1.00051c-2.06104,2.84171 -5.21777,8.96634 -7.38135,11.35452c-6.29443,1.80414 -13.89258,2.81138 -20.14453,4.61318c-1.41357,1.545 -2.87402,3.00006 -4.32422,4.50053c-1.26855,1.31209 -2.80664,2.71719 -3.84814,4.20126c-2.45215,3.49475 -4.49268,7.29316 -6.81592,10.87595c-0.43359,0.6337 -1.49414,2.51797 -1.96436,2.92374l-0.11133,-0.02857c-1.94678,0.03765 -5.10791,-0.37779 -7.13232,-0.51271c-5.25439,-0.35025 -10.66406,-0.99304 -15.9126,-1.25701l-13.43115,10.96326c-2.77295,2.25752 -7.19092,5.86301 -10.14551,7.88937c-1.06641,0.82809 -2.07422,3.62805 -2.71436,4.90352c-1.12061,2.23042 -1.51025,4.95288 -2.04492,7.37974l-0.45557,0.12334v0.02271l-0.09375,0.06753c-0.5918,-1.04738 -1.58936,-3.98343 -2.15186,-5.29068c-0.68555,-1.59598 -1.17334,-2.2143 -1.92773,-3.68123l0.01758,-0.08892c0.36182,-0.09668 0.20508,-0.00718 0.46875,-0.29898c-0.32959,-0.8215 -0.19922,-14.47324 0.16553,-15.22311l-0.03809,-0.23101l0.01611,-0.12788l-0.05713,-0.31978c-0.23584,-0.84714 -0.24756,-7.37549 -0.29297,-8.68113c-0.10547,-2.99552 -0.25488,-6.32063 -0.31055,-9.32641c0.38232,-1.21204 0.91699,-4.44838 1.24365,-5.90256c0.84521,-3.66658 1.97021,-7.26343 3.36328,-10.7592c-0.63281,-2.26982 -1.41797,-7.55596 -1.84424,-10.08799l0.24756,-0.02314l-0.34277,-0.28199l0.03955,-0.11148c1.46631,-0.69816 5.61035,-3.47395 7.31982,-4.43446c2.79932,-1.57166 6.64893,-3.7574 9.26367,-5.45299c0.60645,-0.39259 3.91699,-5.1565 4.71533,-6.2263z" fill="#42afc1"/><path d="M225.104,68.15248l0.03955,0.23409c-0.0498,9.89917 -0.59766,19.86294 -0.61084,29.70733c-0.271,2.3372 -0.04834,6.00949 -0.11279,8.44602l-0.11133,-0.02857c-1.94678,0.03765 -5.10791,-0.37779 -7.13232,-0.51271c-5.25439,-0.35025 -10.66406,-0.99304 -15.9126,-1.25701l-13.43115,10.96326c-2.77295,2.25752 -7.19092,5.86301 -10.14551,7.88937c-1.06641,0.82809 -2.07422,3.62805 -2.71436,4.90352c-1.12061,2.23042 -1.51025,4.95288 -2.04492,7.37974l-0.45557,0.12334v0.02271l-0.09375,0.06753c-0.5918,-1.04738 -1.58936,-3.98343 -2.15186,-5.29068c-0.68555,-1.59598 -1.17334,-2.2143 -1.92773,-3.68123l0.01758,-0.08892c0.36182,-0.09668 0.20508,-0.00718 0.46875,-0.29898c-0.32959,-0.8215 -0.19922,-14.47324 0.16553,-15.22311l-0.03809,-0.23101l0.01611,-0.12788l-0.05713,-0.31978c-0.23584,-0.84714 -0.24756,-7.37549 -0.29297,-8.68113c-0.10547,-2.99552 -0.25488,-6.32063 -0.31055,-9.32641c0.38232,-1.21204 0.91699,-4.44838 1.24365,-5.90256c0.84521,-3.66658 1.97021,-7.26343 3.36328,-10.7592c3.70605,-1.57225 7.97461,-2.85577 11.77588,-4.26454c1.71387,-0.63517 3.72949,-1.24631 5.37158,-2.01698c0.71045,0.23497 3.37207,3.89524 4.10449,4.81958c0.2959,0.33165 1.27881,1.47835 1.57471,1.67552l0.01758,0.1043c0.61816,0.03325 3.104,-0.76086 3.84961,-0.97341l7.60107,-2.15366c5.68799,-1.59642 11.47998,-3.09191 17.1665,-4.71587c0.36621,-0.10415 0.56104,-0.16905 0.76758,-0.48268z" fill="#2f61b4"/><path d="M190.02246,69.87869c0.71045,0.23497 3.37207,3.89524 4.10449,4.81958c0.2959,0.33165 1.27881,1.47835 1.57471,1.67552l0.01758,0.1043l-0.19336,0.18589c-0.67676,1.12766 -2.4624,3.13571 -3.35449,4.22806c-2.60596,3.18874 -5.27637,6.28255 -7.82959,9.51889c-1.1792,1.49417 -1.59814,3.81702 -2.4082,4.89194c-2.49756,3.31706 -5.39062,6.64935 -8.03467,9.86958c-0.94336,1.14934 -4.11475,5.21671 -4.97021,5.97683l-0.05713,-0.31978c-0.23584,-0.84714 -0.24756,-7.37549 -0.29297,-8.68113c-0.10547,-2.99552 -0.25488,-6.32063 -0.31055,-9.32641c0.38232,-1.21204 0.91699,-4.44838 1.24365,-5.90256c0.84521,-3.66658 1.97021,-7.26343 3.36328,-10.7592c3.70605,-1.57225 7.97461,-2.85577 11.77588,-4.26454c1.71387,-0.63517 3.72949,-1.24631 5.37158,-2.01698z" fill="#2577b3"/><path d="M174.28564,84.19416c0.41162,-0.29136 4.41797,-1.62572 5.13135,-1.88412c5.34229,-1.93627 10.78564,-3.66042 16.10889,-5.64606c-0.67676,1.12766 -2.4624,3.13571 -3.35449,4.22806c-2.60596,3.18874 -5.27637,6.28255 -7.82959,9.51889c-1.1792,1.49417 -1.59814,3.81702 -2.4082,4.89194c-2.49756,3.31706 -5.39062,6.64935 -8.03467,9.86958c-0.94336,1.14934 -4.11475,5.21671 -4.97021,5.97683l-0.05713,-0.31978c0.89355,-2.91451 1.62744,-6.43724 2.40381,-9.43876c1.07666,-4.16068 2.23242,-8.42624 2.98828,-12.64713c0.24316,-0.96125 0.53027,-3.7155 0.02197,-4.54946z" fill="#214097"/><path d="M174.26367,88.74361c-0.41162,-0.68278 -0.47168,-0.59327 -0.46143,-1.44393c0.01172,-1.04475 0.27393,-2.09081 0.4834,-3.10553c0.5083,0.83395 0.22119,3.58821 -0.02197,4.54946z" fill="#2f61b4"/><path d="M177.68701,123.59426l-0.18164,-0.22046c-0.16846,-1.02717 1.46777,-3.76824 1.77686,-4.91421c0.0791,-0.28829 0.37646,-0.98586 0.49658,-1.28323c1.96143,-4.80669 3.95068,-9.59521 5.7627,-14.46123c0.7793,-2.09228 1.27588,-4.36869 2.06543,-6.46639c2.77734,-6.2156 5.14014,-12.60157 7.7666,-18.8806c0.1377,-0.33077 0.12744,-0.29913 0.42773,-0.39317c0.04541,1.33582 1.64795,8.92987 2.02002,10.63923c1.22168,5.61237 2.20313,11.55126 3.44238,17.12744l-13.43115,10.96326c-2.77295,2.25752 -7.19092,5.86301 -10.14551,7.88937z" fill="#2580ba"/><path d="M195.80127,76.97497c5.17822,4.97046 10.5,10.91228 15.55518,16.10642l8.56201,8.82732c1.13525,1.17424 3.39258,3.38942 4.39014,4.60263c-1.94678,0.03765 -5.10791,-0.37779 -7.13232,-0.51271c-5.25439,-0.35025 -10.66406,-0.99304 -15.9126,-1.25701c-1.23926,-5.57619 -2.2207,-11.51507 -3.44238,-17.12744c-0.37207,-1.70936 -1.97461,-9.30341 -2.02002,-10.63923z" fill="#42afc1"/><path d="M168.95068,111.50818l3.62842,12.35474c-1.31836,0.88976 -2.51221,2.0432 -3.79395,2.86837c-0.32959,-0.8215 -0.19922,-14.47324 0.16553,-15.22311z" fill="#6ccecc"/><path d="M168.78516,126.73129c1.28174,-0.82516 2.47559,-1.9786 3.79395,-2.86837c-0.88184,4.8042 0.46875,7.88893 -0.10693,12.13794v0.02271l-0.09375,0.06753c-0.5918,-1.04738 -1.58936,-3.98343 -2.15186,-5.29068c-0.68555,-1.59598 -1.17334,-2.2143 -1.92773,-3.68123l0.01758,-0.08892c0.36182,-0.09668 0.20508,-0.00718 0.46875,-0.29898z" fill="#42afc1"/><path d="M212.74658,25.54006c0.32227,0.18326 0.5918,1.46326 0.71631,1.91049l11.64111,40.70193c-0.20654,0.31363 -0.40137,0.37852 -0.76758,0.48268c-5.68652,1.62396 -11.47852,3.11945 -17.1665,4.71587l-7.60107,2.15366c-0.74561,0.21255 -3.23145,1.00666 -3.84961,0.97341l-0.01758,-0.1043c-0.2959,-0.19717 -1.27881,-1.34387 -1.57471,-1.67552c2.11816,-7.34985 3.96094,-14.83242 6.12598,-22.1732c1.19238,-4.04027 1.94824,-8.97 4.06055,-12.56744c2.76416,-4.70737 5.3584,-9.92657 8.43311,-14.41757z" fill="#214097"/><path d="M212.74658,25.54006c-0.94189,3.14728 -2.25732,6.69491 -3.32959,9.84072l-5.18555,15.50041l-6.17725,18.50032c-0.73975,2.17226 -1.55273,4.91523 -2.35254,6.99228c-0.2959,-0.19717 -1.27881,-1.34387 -1.57471,-1.67552c2.11816,-7.34985 3.96094,-14.83242 6.12598,-22.1732c1.19238,-4.04027 1.94824,-8.97 4.06055,-12.56744c2.76416,-4.70737 5.3584,-9.92657 8.43311,-14.41757z" fill="#2580ba"/><path d="M214.78564,23.65726c1.88525,1.36702 4.72998,4.06283 6.58301,5.64987c4.5498,3.89773 9.03223,7.98283 13.60547,11.85126l8.43164,7.36919c1.0752,0.94924 3.42627,2.95055 4.27002,3.88851c-0.74561,0.76598 -2.86377,2.27363 -3.78955,2.9693c-2.59717,1.96015 -5.20605,3.90286 -7.82812,5.8277c-1.63623,1.21467 -7.48389,5.71359 -8.86963,6.45306c-2.31299,-7.33418 -4.34473,-15.14342 -6.41016,-22.57076c-1.93652,-6.96518 -4.30225,-14.44892 -5.99268,-21.43812z" fill="#2580ba"/><path d="M216.55518,21.83203c17.05811,4.18119 34.07959,8.50754 51.06299,12.97848c-1.39307,1.45872 -3.04541,2.73536 -4.51465,4.09842c-4.11768,3.82171 -9.46143,7.86505 -13.30811,11.83486l-0.18018,0.0999l-14.17822,-12.46006c-0.27979,-0.37501 -4.38867,-3.88484 -5.00098,-4.43168c-4.56885,-4.07513 -9.31787,-8.04288 -13.88086,-12.11992z" fill="#214097"/><path d="M204.57129,32.97927c-0.44971,2.05068 -13.68457,36.00541 -14.36279,36.71352l-0.28711,0.09331l0.10107,0.09258c-1.64209,0.77067 -3.65771,1.38181 -5.37158,2.01698c-3.80127,1.40877 -8.06982,2.69229 -11.77588,4.26454c-0.63281,-2.26982 -1.41797,-7.55596 -1.84424,-10.08799l0.24756,-0.02314l-0.34277,-0.28199l0.03955,-0.11148c1.46631,-0.69816 5.61035,-3.47395 7.31982,-4.43446c2.79932,-1.57166 6.64893,-3.7574 9.26367,-5.45299c0.60645,-0.39259 3.91699,-5.1565 4.71533,-6.2263z" fill="#2f61b4"/><path d="M171.27832,66.04907c5.67627,1.07771 11.32031,2.35361 17.00977,3.38151c0.46875,0.08482 1.19238,0.20391 1.6333,0.35552l0.10107,0.09258c-1.64209,0.77067 -3.65771,1.38181 -5.37158,2.01698c-3.80127,1.40877 -8.06982,2.69229 -11.77588,4.26454c-0.63281,-2.26982 -1.41797,-7.55596 -1.84424,-10.08799z" fill="#6ccecc"/><path d="M267.61816,34.81051c1.93506,1.22214 5.56641,4.23597 7.48975,5.72765c4.396,3.35983 8.77295,6.74398 13.13086,10.15216c0.90967,0.7153 6.1084,5.05542 6.91113,5.07725c0.2915,0.27877 1.00781,0.89035 1.10156,1.22244l-0.07471,0.11338c-0.75439,-0.47462 -33.79395,-7.2019 -36.83789,-7.66832c-0.88623,-0.13579 -7.74316,1.0528 -9.54346,1.30872c3.84668,-3.96981 9.19043,-8.01315 13.30811,-11.83486c1.46924,-1.36306 3.12158,-2.6397 4.51465,-4.09842z" fill="#2f61b4"/><path d="M235.43701,38.38363l14.17822,12.46006c2.25879,4.32489 5.69385,12.01591 6.89502,16.65019c-2.28076,-3.37053 -4.39014,-7.53501 -6.49072,-11.03752c-0.65039,-1.08445 -1.68457,-3.12194 -2.34375,-4.04027c-0.84375,-0.93796 -3.19482,-2.93927 -4.27002,-3.88851l-8.43164,-7.36919c-0.00732,-0.46026 -0.01025,-0.92053 -0.00879,-1.38094c0.00732,-0.78239 -0.01318,-0.91437 0.47168,-1.39383z" fill="#6ccecc"/><path d="M225.14355,68.38657l2.02295,-0.5899c-0.46143,6.63851 -0.96973,13.2738 -1.5249,19.90513c-0.1084,1.4741 -0.63721,10.46491 -1.00928,11.4534l-0.09961,-1.0613c0.01318,-9.84439 0.56104,-19.80816 0.61084,-29.70733z" fill="#6ccecc"/><path d="M255.87305,67.48831c0.82471,0.6403 4.26416,8.33688 4.85596,9.73555c-0.04834,-0.05816 -0.24316,-0.28946 -0.30322,-0.40225c-1.49561,-2.82281 -3.59619,-5.81144 -4.66846,-8.78206c0.04834,-0.22852 0.08643,-0.41236 0.11572,-0.55123z" fill="#56c3cb"/><path d="M82.26445,9.09582c0.92227,0.61059 5.32236,4.23725 5.85571,5.05645c0.94878,1.45712 2.33174,5.96703 2.95825,7.77161c0.77461,2.19658 1.56987,4.38598 2.38564,6.56761c0.4314,1.16677 1.24937,3.62131 1.84482,4.60219c5.0376,6.29807 11.52495,15.8927 16.80967,22.40347c0.93691,1.15432 6.248,3.31911 7.5769,4.44047c2.7564,1.49183 6.66284,4.34862 9.1998,5.58732l0.02139,0.11177l-0.01641,0.17329l-0.14678,0.19541l-0.10063,0.06387c0.13477,0.89518 -1.14155,8.6054 -1.42925,9.85317c-3.53906,-1.23767 -7.08647,-2.45132 -10.64194,-3.6408c-1.26401,-0.42349 -5.93145,-1.9181 -6.81577,-2.49614l-0.16567,-0.09214c-1.02349,1.30857 -2.8853,3.80618 -3.98159,4.96651c-0.59092,0.67531 -0.93721,1.13821 -1.45239,1.8601l0.31948,0.11177l-0.17871,0.16949l-0.23848,-0.0063c-0.44048,3.28586 -1.65117,8.27902 -2.30596,11.7244c-0.6939,3.71448 -1.42427,7.42207 -2.19126,11.12205c-0.25957,1.2573 -0.70049,3.76648 -1.04839,4.93062c-6.62593,0.81916 -13.37856,1.12048 -20.02808,1.75316c-1.02129,0.09727 -2.04917,0.19248 -3.07412,0.23555l-0.12729,-0.09917c-0.61641,-0.657 -2.95063,-4.7374 -3.62065,-5.77453c-1.82095,-2.81871 -3.76523,-6.39036 -5.78262,-9.05907c-0.75454,-0.99802 -2.85835,-2.70811 -3.84448,-3.85496c-0.73359,-0.85314 -3.10239,-3.25568 -3.89517,-3.87151c-2.8856,-0.76891 -20.74702,-4.25253 -21.69023,-4.87114c-0.85562,-1.10495 -2.22129,-3.5031 -2.99883,-4.78428l-6.25195,-10.43825c-7.64253,-2.03661 -15.64578,-4.52909 -23.31917,-6.68465l-0.19544,-0.14297c0.16503,-0.4254 0.62577,-0.75368 0.98616,-1.07287c0.04362,-0.05669 0.08723,-0.11338 0.13084,-0.17007c3.29774,-3.61501 6.98449,-6.99272 10.48594,-10.39415c2.91445,-2.83541 5.84795,-5.65133 8.8002,-8.44748c1.04912,-0.99421 3.85986,-3.77659 4.94355,-4.54345c1.90166,-1.34578 5.09341,-3.14069 7.27822,-4.3829c3.6501,-2.07514 7.86152,-4.86572 11.67642,-6.53158c0.43521,-0.18999 3.85898,-0.58317 4.54585,-0.66476l7.63682,-0.89328l24.11719,-2.85211c-0.63018,-2.69147 -1.38926,-5.26868 -2.03159,-7.93172z" fill="#42afc1"/><path d="M74.55732,68.33339l0.05859,-0.11382c0.1689,0.13579 0.34453,0.25738 0.55488,0.3129c6.26104,1.65208 12.57861,3.51496 18.82061,5.17877c1.27324,0.33941 9.37646,2.79088 10.03945,2.77081l0.13535,0.03794l0.31948,0.11177l-0.17871,0.16949l-0.23848,-0.0063c-0.44048,3.28586 -1.65117,8.27902 -2.30596,11.7244c-0.6939,3.71448 -1.42427,7.42207 -2.19126,11.12205c-0.25957,1.2573 -0.70049,3.76648 -1.04839,4.93062c-6.62593,0.81916 -13.37856,1.12048 -20.02808,1.75316c-1.02129,0.09727 -2.04917,0.19248 -3.07412,0.23555l-0.12729,-0.09917c0.13389,-1.36922 0.03691,-7.79869 -0.12217,-9.20717c-0.02534,-1.55511 -0.05669,-2.92579 -0.17783,-4.48354c0.10693,-2.91876 -0.07661,-6.91479 -0.15835,-9.89976z" fill="#2f61b4"/><path d="M75.4207,106.56072c5.10264,-5.66613 11.15669,-11.59842 16.49385,-17.1708c3.73491,-3.89949 8.36689,-9.0056 12.15396,-12.59498c-0.44048,3.28586 -1.65117,8.27902 -2.30596,11.7244c-0.6939,3.71448 -1.42427,7.42207 -2.19126,11.12205c-0.25957,1.2573 -0.70049,3.76648 -1.04839,4.93062c-6.62593,0.81916 -13.37856,1.12048 -20.02808,1.75316c-1.02129,0.09727 -2.04917,0.19248 -3.07412,0.23555z" fill="#42afc1"/><path d="M74.61592,68.21957c2.96279,-10.01226 9.00381,-31.25116 12.27524,-42.43883c0.06797,-0.03853 0.13579,-0.0772 0.20376,-0.11587c0.78633,0.95246 3.29985,5.41051 4.0374,6.73519c1.38091,2.48018 4.35132,7.10097 5.30479,9.59726c1.00562,2.63252 2.21045,7.53326 3.00322,10.44161c1.49854,5.49576 3.04204,10.97922 4.63008,16.44979c0.31934,1.13308 1.2312,4.92051 1.54819,5.77116c-0.59092,0.67531 -0.93721,1.13821 -1.45239,1.8601l-0.13535,-0.03794c-0.66299,0.02007 -8.76621,-2.4314 -10.03945,-2.77081c-6.24199,-1.6638 -12.55957,-3.52668 -18.82061,-5.17877c-0.21035,-0.05552 -0.38599,-0.1771 -0.55488,-0.3129z" fill="#214097"/><path d="M87.09492,25.66487c0.78633,0.95246 3.29985,5.41051 4.0374,6.73519c1.38091,2.48018 4.35132,7.10097 5.30479,9.59726c1.00562,2.63252 2.21045,7.53326 3.00322,10.44161c1.49854,5.49576 3.04204,10.97922 4.63008,16.44979c0.31934,1.13308 1.2312,4.92051 1.54819,5.77116c-0.59092,0.67531 -0.93721,1.13821 -1.45239,1.8601l-0.13535,-0.03794c-1.25039,-4.42304 -3.45293,-10.36193 -4.9645,-14.83506l-7.98984,-24.01835c-1.14009,-3.41198 -3.11763,-8.70091 -3.98159,-11.96376z" fill="#2580ba"/><path d="M32.02544,34.90543c5.24106,-1.48011 10.87734,-2.82882 16.17744,-4.17372l23.97231,-6.11409c3.52441,-0.89474 7.65864,-1.80077 11.08638,-2.76451l-21.20566,18.62952c-3.81577,3.355 -7.97183,7.13979 -11.86436,10.3212c-5.38594,-5.23883 -12.49072,-10.6946 -18.16611,-15.89841z" fill="#214097"/><path d="M95.30889,33.09368c5.0376,6.29807 11.52495,15.8927 16.80967,22.40347c0.93691,1.15432 6.248,3.31911 7.5769,4.44047c2.7564,1.49183 6.66284,4.34862 9.1998,5.58732l0.02139,0.11177l-0.01641,0.17329l-0.14678,0.19541l-0.10063,0.06387c0.13477,0.89518 -1.14155,8.6054 -1.42925,9.85317c-3.53906,-1.23767 -7.08647,-2.45132 -10.64194,-3.6408c-1.26401,-0.42349 -5.93145,-1.9181 -6.81577,-2.49614l-0.16567,-0.09214c-0.85576,-0.74445 -13.5186,-33.39588 -14.29131,-36.5997z" fill="#2f61b4"/><path d="M109.76587,69.78552l18.88696,-3.71624c0.13477,0.89518 -1.14155,8.6054 -1.42925,9.85317c-3.53906,-1.23767 -7.08647,-2.45132 -10.64194,-3.6408c-1.26401,-0.42349 -5.93145,-1.9181 -6.81577,-2.49614z" fill="#6ccecc"/><path d="M4.68103,55.90732c0.80401,-0.26119 4.50082,-3.36745 5.43218,-4.08685l13.86599,-10.70222c2.45991,-1.91239 5.5708,-4.4957 8.04624,-6.21282c5.67539,5.20381 12.78018,10.65959 18.16611,15.89841c-2.97144,-0.29341 -6.70063,-1.3197 -9.6123,-1.37449c-0.5811,-0.01084 -4.73101,0.8946 -5.46943,1.04856l-10.03228,2.07543l-14.41828,2.97472c-1.2723,0.26514 -5.90509,1.15989 -6.76896,1.5951l-0.19544,-0.14297c0.16503,-0.4254 0.62577,-0.75368 0.98616,-1.07287z" fill="#2f61b4"/><path d="M52.04722,52.81819c0.54844,1.78714 1.01016,4.04818 1.32129,5.90227c1.41108,8.40588 3.53848,16.75785 4.78198,25.18102c-2.8856,-0.76891 -20.74702,-4.25253 -21.69023,-4.87114l0.13491,-0.25035c1.95571,-1.29451 12.54199,-22.25743 15.45205,-25.9618z" fill="#369cc4"/><path d="M40.74888,49.1541c-0.49614,1.83051 -0.73374,4.5685 -1.01426,6.50931c-0.76201,5.24366 -1.47246,10.49479 -2.13091,15.75251c-0.2499,1.87738 -0.64043,5.68283 -1.00854,7.36406l-0.13491,0.25035c-0.85562,-1.10495 -2.22129,-3.5031 -2.99883,-4.78428l-6.25195,-10.43825c1.23237,-1.19182 2.51675,-2.51226 3.65713,-3.79607c3.20435,-3.60725 6.90645,-7.07548 9.88228,-10.85764z" fill="#6ccecc"/><path d="M72.50229,67.74158c0.63721,0.23233 1.39263,0.41456 2.05503,0.59181l0.27773,14.53769c0.08174,2.98497 0.26528,6.981 0.15835,9.89976c-0.41851,0.59503 0.06797,1.74173 -0.33398,2.12055c-0.27026,-0.50538 -1.9374,-24.58247 -2.15713,-27.14981z" fill="#6ccecc"/><path d="M74.65942,94.89139c0.40195,-0.37882 -0.08452,-1.52552 0.33398,-2.12055c0.12114,1.55775 0.15249,2.92843 0.17783,4.48354c-0.01802,0.52164 -0.11719,1.62894 -0.05933,2.09902l-0.09258,-0.03618c-0.07983,-1.55394 -0.28901,-2.9797 -0.35991,-4.42582z" fill="#56c3cb"/><path d="M84.8061,23.87714c0.25474,0.61642 -10.99351,39.44302 -12.26543,43.83764c-1.2665,-0.7651 -3.05024,-2.18867 -4.26108,-3.09821c-2.43164,-1.84471 -4.88027,-3.66702 -7.34561,-5.46632c-2.83022,-2.22163 -6.01465,-4.41073 -8.74146,-6.67865c1.18359,-1.3137 3.25576,-3.03478 4.61895,-4.22338l7.6478,-6.66151c6.53188,-5.69616 13.6894,-12.24956 20.34683,-17.70958z" fill="#2580ba"/><path d="M150.56104,31.69282c1.59521,0.30381 8.12549,2.22661 9.50244,2.81651l0.02783,0.11397c1.66992,1.86581 4.979,8.22614 6.64746,10.61579l0.07178,0.07998c0.72363,0.94338 4.91455,6.5701 5.43896,6.90629l-0.20068,0.52003c-0.34424,1.34651 -1.15137,11.34456 -1.07373,12.91022l-0.03955,0.11148l0.34277,0.28199l-0.24756,0.02314c0.42627,2.53203 1.21143,7.81817 1.84424,10.08799c-1.39307,3.49577 -2.51807,7.09262 -3.36328,10.7592c-0.32666,1.45418 -0.86133,4.69052 -1.24365,5.90256c0.05566,3.00577 0.20508,6.33089 0.31055,9.32641c0.04541,1.30564 0.05713,7.83399 0.29297,8.68113l0.05713,0.31978l-0.01611,0.12788l0.03809,0.23101c-0.36475,0.74987 -0.49512,14.40161 -0.16553,15.22311c-0.26367,0.2918 -0.10693,0.2023 -0.46875,0.29898l-0.01758,0.08892c0.75439,1.46692 1.24219,2.08525 1.92773,3.68123c0.5625,1.30725 1.56006,4.2433 2.15186,5.29068l0.09375,-0.06753v-0.02271l0.45557,-0.12334c-0.09229,0.56808 -0.11133,1.0361 -0.5918,1.35647c-1.37109,0.91672 -3.35889,1.36966 -4.93213,1.90111c-2.61768,1.0279 -6.45703,2.57613 -8.7832,4.17225c-1.40918,0.96667 -6.89795,9.12001 -7.80615,9.54482c-0.30029,-0.15528 -0.30322,-0.16993 -0.45703,-0.48487c-1.96143,-2.09184 -4.74375,-6.41688 -6.60469,-8.44133c-2.63203,-2.86339 -11.13149,-5.30138 -14.77266,-6.79057c-1.68501,-2.66753 -4.15708,-11.60326 -6.37734,-13.54129c-7.99058,-6.38626 -16.01733,-12.72711 -24.07983,-19.02211c0.3479,-1.16413 0.78882,-3.67332 1.04839,-4.93062c0.76699,-3.69998 1.49736,-7.40757 2.19126,-11.12205c0.65479,-3.44538 1.86548,-8.43855 2.30596,-11.7244l0.23848,0.0063l0.17871,-0.16949l-0.31948,-0.11177c0.51519,-0.72189 0.86147,-1.18479 1.45239,-1.8601c1.09629,-1.16033 2.95811,-3.65793 3.98159,-4.96651l0.16567,0.09214c0.88433,0.57804 5.55176,2.07265 6.81577,2.49614c3.55547,1.18948 7.10288,2.40312 10.64194,3.6408c0.2877,-1.24778 1.56401,-8.95799 1.42925,-9.85317l0.10063,-0.06387l0.14678,-0.19541l0.01641,-0.17329l-0.02139,-0.11177l0.03574,-0.15367c-0.31992,-3.8781 -0.49761,-7.76383 -0.83423,-11.64105l0.22163,-0.33179c0.51489,-0.47022 1.78052,-2.1437 2.27534,-2.77623c1.3689,-1.7662 2.75464,-3.51936 4.15693,-5.25933l0.01787,-0.05933c1.9415,-3.23927 4.41226,-7.56695 6.58652,-10.60216l0.03662,-0.19615c1.90693,-0.82721 6.86367,-2.04657 9.16934,-2.81241z" fill="#369cc4"/><path d="M109.6002,69.69338l0.16567,0.09214c0.88433,0.57804 5.55176,2.07265 6.81577,2.49614c3.55547,1.18948 7.10288,2.40312 10.64194,3.6408c0.51914,1.87269 1.99204,5.60622 2.7561,7.61294c0.9873,2.59312 2.27534,6.63939 3.35845,9.07225l-0.38745,11.09275c-0.03911,1.21672 -0.15117,5.55626 -0.3832,6.56703l0.02036,0.28404c0.17637,0.47169 0.16172,0.536 0.03721,1.02732l-0.04556,0.12613c0.19116,0.928 0.10679,3.99486 0.08745,5.06421c-0.04453,2.42495 -0.07412,4.85019 -0.08892,7.27544c-0.00352,0.66622 -0.01904,2.70225 0.1248,3.26213l-0.09727,0.37061c-0.33501,0.93986 -2.94771,7.89859 -3.352,8.34641l-0.17476,0.03604c-0.03604,0.32989 -0.09727,0.75309 -0.09873,1.07566c-1.68501,-2.66753 -4.15708,-11.60326 -6.37734,-13.54129c-7.99058,-6.38626 -16.01733,-12.72711 -24.07983,-19.02211c0.3479,-1.16413 0.78882,-3.67332 1.04839,-4.93062c0.76699,-3.69998 1.49736,-7.40757 2.19126,-11.12205c0.65479,-3.44538 1.86548,-8.43855 2.30596,-11.7244l0.23848,0.0063l0.17871,-0.16949l-0.31948,-0.11177c0.51519,-0.72189 0.86147,-1.18479 1.45239,-1.8601c1.09629,-1.16033 2.95811,-3.65793 3.98159,-4.96651z" fill="#2f61b4"/><path d="M109.6002,69.69338l0.16567,0.09214c0.88433,0.57804 5.55176,2.07265 6.81577,2.49614c3.55547,1.18948 7.10288,2.40312 10.64194,3.6408c0.51914,1.87269 1.99204,5.60622 2.7561,7.61294c0.9873,2.59312 2.27534,6.63939 3.35845,9.07225l-0.38745,11.09275c-0.03911,1.21672 -0.15117,5.55626 -0.3832,6.56703l0.02036,0.28404l-0.10298,0.22632c-0.5606,-0.2294 -7.10903,-8.48777 -7.90679,-9.45473l-15.02769,-18.05119c-1.19692,-1.43968 -3.94893,-5.09585 -5.21104,-6.21956l-0.03237,-0.25108l0.17871,-0.16949l-0.31948,-0.11177c0.51519,-0.72189 0.86147,-1.18479 1.45239,-1.8601c1.09629,-1.16033 2.95811,-3.65793 3.98159,-4.96651z" fill="#214097"/><path d="M109.6002,69.69338l0.16567,0.09214c0.88433,0.57804 5.55176,2.07265 6.81577,2.49614c3.55547,1.18948 7.10288,2.40312 10.64194,3.6408c0.51914,1.87269 1.99204,5.60622 2.7561,7.61294c0.9873,2.59312 2.27534,6.63939 3.35845,9.07225l-0.38745,11.09275c-0.03911,1.21672 -0.15117,5.55626 -0.3832,6.56703c-0.46816,-1.16487 -1.61265,-6.53319 -1.99307,-8.10529c-1.44624,-6.05915 -2.96631,-12.10029 -4.56021,-18.12209c-4.51567,-1.30623 -9.06987,-3.19767 -13.57148,-4.61757c-2.62383,-0.82765 -5.40747,-1.78216 -7.95703,-2.79073l-0.31948,-0.11177c0.51519,-0.72189 0.86147,-1.18479 1.45239,-1.8601c1.09629,-1.16033 2.95811,-3.65793 3.98159,-4.96651z" fill="#2577b3"/><path d="M104.06851,76.79494l0.23848,0.0063l0.03237,0.25108c1.26094,3.77161 3.29092,8.45334 4.81143,12.1895l8.85527,21.59618c1.58745,3.87342 3.30981,7.78214 4.68999,11.73319c0.16099,0.461 0.12349,0.59415 -0.09331,1.02292c-7.99058,-6.38626 -16.01733,-12.72711 -24.07983,-19.02211c0.3479,-1.16413 0.78882,-3.67332 1.04839,-4.93062c0.76699,-3.69998 1.49736,-7.40757 2.19126,-11.12205c0.65479,-3.44538 1.86548,-8.43855 2.30596,-11.7244z" fill="#2580ba"/><path d="M132.57949,111.70491c0.19116,0.928 0.10679,3.99486 0.08745,5.06421c-0.04453,2.42495 -0.07412,4.85019 -0.08892,7.27544c-0.00352,0.66622 -0.01904,2.70225 0.1248,3.26213l-0.09727,0.37061c-1.43408,-1.27708 -3.09316,-2.45981 -4.63975,-3.61077c0.26616,-1.11902 1.44316,-3.98138 1.8854,-5.12881c0.91655,-2.37778 1.78022,-4.88447 2.72827,-7.23281z" fill="#6ccecc"/><path d="M127.96582,124.06654c1.54658,1.15095 3.20566,2.33369 4.63975,3.61077c-0.33501,0.93986 -2.94771,7.89859 -3.352,8.34641l-0.17476,0.03604c-0.09258,-3.16046 -0.76567,-8.68772 -1.11299,-11.99321z" fill="#42afc1"/><path d="M150.56104,31.69282c1.59521,0.30381 8.12549,2.22661 9.50244,2.81651l0.02783,0.11397c1.66992,1.86581 4.979,8.22614 6.64746,10.61579l0.07178,0.07998c0.72363,0.94338 4.91455,6.5701 5.43896,6.90629l-0.20068,0.52003c-0.34424,1.34651 -1.15137,11.34456 -1.07373,12.91022l-0.03955,0.11148l0.34277,0.28199l-0.24756,0.02314l-0.24902,0.08071c-0.0293,-0.09141 -0.10547,-0.12876 -0.19922,-0.21329l-0.49805,0.21109c-2.52393,-0.15469 -6.54346,1.26726 -9.02197,1.59305c-4.81641,4.14398 -3.08789,6.07263 -10.45459,6.5408l-1.02539,0.01143c-1.33594,-0.47271 -2.95166,-0.709 -4.31089,-1.18904c-2.34375,-0.82795 -4.32407,-3.7051 -5.96807,-5.59318c-3.24448,-0.76935 -7.06611,-1.32923 -10.38691,-1.87709l-0.02139,-0.11177l0.03574,-0.15367c-0.31992,-3.8781 -0.49761,-7.76383 -0.83423,-11.64105l0.22163,-0.33179c0.51489,-0.47022 1.78052,-2.1437 2.27534,-2.77623c1.3689,-1.7662 2.75464,-3.51936 4.15693,-5.25933l0.01787,-0.05933c1.9415,-3.23927 4.41226,-7.56695 6.58652,-10.60216l0.03662,-0.19615c1.90693,-0.82721 6.86367,-2.04657 9.16934,-2.81241z" fill="#42afc1"/><path d="M134.75068,45.36287c1.35366,0.61158 6.85737,4.31566 8.27461,5.35558c0.27671,2.39316 0.52925,4.99287 0.88169,7.36069c-0.34556,0.91115 -1.12148,1.89496 -1.33901,2.55811c-1.02817,2.27964 -2.17529,4.44691 -3.20479,6.69989l-0.05962,0.17666c-3.24448,-0.76935 -7.06611,-1.32923 -10.38691,-1.87709l-0.02139,-0.11177l0.03574,-0.15367c-0.31992,-3.8781 -0.49761,-7.76383 -0.83423,-11.64105l0.22163,-0.33179c0.51489,-0.47022 1.78052,-2.1437 2.27534,-2.77623c1.3689,-1.7662 2.75464,-3.51936 4.15693,-5.25933z" fill="#bffaf9"/><path d="M133.20454,61.19507c1.23486,-0.219 7.99072,-0.52662 9.36343,-0.55782c-1.02817,2.27964 -2.17529,4.44691 -3.20479,6.69989l-0.05962,0.17666c-3.24448,-0.76935 -7.06611,-1.32923 -10.38691,-1.87709l-0.02139,-0.11177l0.03574,-0.15367c1.33184,-0.82267 2.51807,-3.95735 4.27354,-4.17621z" fill="#369cc4"/><path d="M128.09678,53.73022l0.22163,-0.33179c1.27368,1.44422 2.93496,6.1718 4.40801,7.71168c0.1856,0.03296 0.34497,0.06123 0.47812,0.08496c-1.75547,0.21885 -2.9417,3.35353 -4.27354,4.17621c-0.31992,-3.8781 -0.49761,-7.76383 -0.83423,-11.64105z" fill="#42afc1"/><path d="M158.52393,50.72826c1.33154,-1.16619 6.60791,-4.41674 8.28662,-5.40919c0.72363,0.94338 4.91455,6.5701 5.43896,6.90629l-0.20068,0.52003c-0.34424,1.34651 -1.15137,11.34456 -1.07373,12.91022l-0.03955,0.11148l0.34277,0.28199l-0.24756,0.02314l-0.24902,0.08071c-0.0293,-0.09141 -0.10547,-0.12876 -0.19922,-0.21329l-0.49805,0.21109c-2.52393,-0.15469 -6.54346,1.26726 -9.02197,1.59305l-0.26953,-0.62726c-0.34717,-0.91057 -2.65723,-5.82858 -2.63232,-6.38245l0.50537,-0.18252l-0.53027,-0.10488l-0.06006,-0.12642l0.47607,-0.13111c0.03516,-0.43155 -0.77344,-1.24924 -0.86719,-2.16083c0.31494,-2.42935 0.59326,-4.86279 0.83936,-7.30005z" fill="#bffaf9"/><path d="M158.66602,60.55155c2.76709,0.2962 5.89746,0.41866 8.68799,0.55445c0.53467,0.72584 3.0293,4.19086 3.58154,4.66108l0.34277,0.28199l-0.24756,0.02314l-0.24902,0.08071c-0.0293,-0.09141 -0.10547,-0.12876 -0.19922,-0.21329l-0.49805,0.21109c-2.52393,-0.15469 -6.54346,1.26726 -9.02197,1.59305l-0.26953,-0.62726c-0.34717,-0.91057 -2.65723,-5.82858 -2.63232,-6.38245z" fill="#2580ba"/><path d="M167.354,61.106c0.72656,-1.43147 3.84814,-7.51158 4.69482,-8.36062c-0.34424,1.34651 -1.15137,11.34456 -1.07373,12.91022l-0.03955,0.11148c-0.55225,-0.47022 -3.04687,-3.93523 -3.58154,-4.66108z" fill="#42afc1"/><path d="M150.56104,31.69282c1.59521,0.30381 8.12549,2.22661 9.50244,2.81651l0.02783,0.11397c1.66992,1.86581 4.979,8.22614 6.64746,10.61579l0.07178,0.07998c-1.67871,0.99245 -6.95508,4.243 -8.28662,5.40919l-0.18311,-0.25591c-2.16211,-1.04607 -5.44922,-3.10333 -7.7168,-4.33895c-0.14941,-4.64409 -0.05566,-9.76118 -0.06299,-14.44057z" fill="#56c3cb"/><path d="M160.09131,34.6233c1.66992,1.86581 4.979,8.22614 6.64746,10.61579l0.07178,0.07998c-1.67871,0.99245 -6.95508,4.243 -8.28662,5.40919l-0.18311,-0.25591c0.12305,-0.39932 0.32373,-2.87042 0.38379,-3.45271l0.80859,-7.90519c0.12451,-1.19021 0.30176,-3.37741 0.55811,-4.49115z" fill="#42afc1"/><path d="M150.54932,59.93323c0.44092,0.22691 0.97852,1.29231 1.36816,1.82582c1.97021,2.70474 5.19727,5.07183 8.56055,5.5712c0.14648,-0.08174 0.22119,-0.09624 0.31494,-0.21372l0.26953,0.62726c-4.81641,4.14398 -3.08789,6.07263 -10.45459,6.5408l-1.02539,0.01143c-1.33594,-0.47271 -2.95166,-0.709 -4.31089,-1.18904c-2.34375,-0.82795 -4.32407,-3.7051 -5.96807,-5.59318l0.05962,-0.17666c3.22559,0.23467 9.19102,-3.8242 10.20469,-6.90937c0.03369,-0.31363 -0.01465,-0.16421 0.19629,-0.444z" fill="#369cc4"/><path d="M139.36318,67.33713c3.22559,0.23467 9.19102,-3.8242 10.20469,-6.90937c-0.18604,4.23099 -0.00586,9.53823 0.01465,13.86825c-1.33594,-0.47271 -2.95166,-0.709 -4.31089,-1.18904c-2.34375,-0.82795 -4.32407,-3.7051 -5.96807,-5.59318z" fill="#56c3cb"/><path d="M141.3917,34.50523c1.90693,-0.82721 6.86367,-2.04657 9.16934,-2.81241c0.00732,4.67939 -0.08643,9.79648 0.06299,14.44057l-0.04395,0.10225c-1.44873,0.59313 -5.9146,3.49299 -7.38047,4.4226c-0.04893,-0.77082 -0.15059,-1.60491 -0.24888,-2.37309c-0.57729,-4.50844 -0.95713,-9.08675 -1.59565,-13.58377z" fill="#6ccecc"/><path d="M143.90698,58.07914l0.09214,0.0857c0.35786,-0.02022 3.47549,-4.28944 4.49063,-4.70415c0.4585,-0.18692 1.26563,-1.11594 2.08887,-1.3597c0.05127,2.61055 0.04102,5.22198 -0.0293,7.83224l-0.78516,0.05054c-0.21094,0.27979 -0.1626,0.13037 -0.19629,0.444c-1.01367,3.08517 -6.9791,7.14404 -10.20469,6.90937c1.02949,-2.25297 2.17661,-4.42025 3.20479,-6.69989c0.21753,-0.66315 0.99346,-1.64696 1.33901,-2.55811z" fill="#6ccecc"/><path d="M150.62402,46.13339c2.26758,1.23562 5.55469,3.29289 7.7168,4.33895l0.18311,0.25591c-0.24609,2.43726 -0.52441,4.8707 -0.83936,7.30005l-0.14355,0.24522c-0.29883,-0.07412 -2.46533,-2.85782 -2.96631,-3.36291c-1.15869,-1.16941 -2.49316,-2.15204 -3.95215,-2.9129c-0.12598,-1.52215 -0.04395,-4.1787 -0.04248,-5.76208z" fill="#369cc4"/><path d="M168.9126,111.27717l0.03809,0.23101c-0.36475,0.74987 -0.49512,14.40161 -0.16553,15.22311c-0.26367,0.2918 -0.10693,0.2023 -0.46875,0.29898l-0.01758,0.08892c0.75439,1.46692 1.24219,2.08525 1.92773,3.68123c0.5625,1.30725 1.56006,4.2433 2.15186,5.29068l0.09375,-0.06753v-0.02271l0.45557,-0.12334c-0.09229,0.56808 -0.11133,1.0361 -0.5918,1.35647c-1.37109,0.91672 -3.35889,1.36966 -4.93213,1.90111c-2.61768,1.0279 -6.45703,2.57613 -8.7832,4.17225c-1.40918,0.96667 -6.89795,9.12001 -7.80615,9.54482c-0.30029,-0.15528 -0.30322,-0.16993 -0.45703,-0.48487c-1.96143,-2.09184 -4.74375,-6.41688 -6.60469,-8.44133c-2.63203,-2.86339 -11.13149,-5.30138 -14.77266,-6.79057c0.00146,-0.32257 0.0627,-0.74577 0.09873,-1.07566l0.17476,-0.03604c0.4043,-0.44781 3.01699,-7.40654 3.352,-8.34641l0.09727,-0.37061l0.11543,-0.00366c0.88975,0.22281 7.96509,-3.98343 9.87437,-4.28241c1.71826,-0.2691 6.54565,0.04775 7.76733,-0.43946l0.19775,0.13169c1.42236,-0.73346 3.37061,-2.14223 4.76807,-3.05016l8.36865,-5.36407c1.18066,-0.75895 3.59033,-2.41894 4.80322,-2.79761z" fill="#2f61b4"/><path d="M150.45996,122.58115l0.19775,0.13169c-0.40869,1.74115 0.16846,5.75446 -0.06592,7.40742c-0.47461,3.31999 0.71338,20.10685 -0.23437,22.24703c-1.96143,-2.09184 -4.74375,-6.41688 -6.60469,-8.44133c-2.63203,-2.86339 -11.13149,-5.30138 -14.77266,-6.79057c0.00146,-0.32257 0.0627,-0.74577 0.09873,-1.07566l0.17476,-0.03604c0.4043,-0.44781 3.01699,-7.40654 3.352,-8.34641l0.09727,-0.37061l0.11543,-0.00366c0.88975,0.22281 7.96509,-3.98343 9.87437,-4.28241c1.71826,-0.2691 6.54565,0.04775 7.76733,-0.43946z" fill="#2580ba"/><path d="M168.9126,111.27717l0.03809,0.23101c-0.36475,0.74987 -0.49512,14.40161 -0.16553,15.22311c-0.26367,0.2918 -0.10693,0.2023 -0.46875,0.29898c-0.71191,-2.74605 -2.74512,-6.92167 -3.97998,-9.64004c1.3916,-1.74745 2.99414,-4.03616 4.26123,-5.88923z" fill="#42afc1"/><path d="M168.29883,127.11918c0.75439,1.46692 1.24219,2.08525 1.92773,3.68123c0.5625,1.30725 1.56006,4.2433 2.15186,5.29068l0.09375,-0.06753v-0.02271l0.45557,-0.12334c-0.09229,0.56808 -0.11133,1.0361 -0.5918,1.35647c-1.37109,0.91672 -3.35889,1.36966 -4.93213,1.90111c-0.52734,-0.85285 1.79736,-9.15414 0.94043,-11.20364c-0.12451,-0.29766 -0.08936,-0.49894 -0.04541,-0.81227z" fill="#2580ba"/><path d="M158.21045,123.2317c0.62988,-0.06445 1.39893,0.1607 1.89551,0.54728l-0.18311,0.07471c-0.59473,-0.19043 -1.14551,-0.3523 -1.7124,-0.62199z" fill="#2f61b4"/><path d="M170.08447,66.15073l0.49805,-0.21109c0.09375,0.08452 0.16992,0.12188 0.19922,0.21329l0.24902,-0.08071c0.42627,2.53203 1.21143,7.81817 1.84424,10.08799c-1.39307,3.49577 -2.51807,7.09262 -3.36328,10.7592c-0.32666,1.45418 -0.86133,4.69052 -1.24365,5.90256l-0.09375,0.00645c-1.27588,0.438 -3.52881,1.1426 -4.69336,1.64417l-0.0293,-1.34358l-0.3208,-0.06533c0.01172,1.1218 0.07764,3.02496 -0.08496,4.06356c-1.97021,1.34461 -4.36084,3.1026 -6.32959,4.34833c-3.17139,0.10474 -2.25,-0.07515 -4.83252,-0.51373c-0.15674,-0.52926 -0.18457,-0.87892 0.01025,-1.35882c-0.25342,-0.22881 -0.38086,-0.27437 -0.68848,-0.43082c0.12891,-0.5691 0.40576,-1.36746 0.58447,-1.94271l-0.62842,-0.01362c-0.36035,-0.34527 -0.29443,-0.61554 -0.3999,-1.2031c-0.05127,-2.03398 -0.01465,-4.12918 -0.00439,-6.16902c0.46289,-0.4484 0.41748,-0.28448 0.58154,-0.85314c-0.1084,-0.46085 -0.2959,-0.55284 -0.66211,-0.86486c-0.1626,-0.39713 -0.09814,-1.76385 -0.09375,-2.27392l0.15088,0.00088c-0.30029,-0.58448 -0.24023,-0.42686 -0.84229,-0.83219c-0.43652,-0.72072 -0.19336,-5.31661 -0.13623,-6.41585l-0.36621,-0.39932c0.43506,-1.11023 -0.16553,-2.52764 0.29297,-3.52756c0.13623,-0.29752 0.55225,-0.30528 0.92578,-0.39317c7.3667,-0.46817 5.63818,-2.39683 10.45459,-6.5408c2.47852,-0.32579 6.49805,-1.74774 9.02197,-1.59305z" fill="#214097"/><path d="M160.93652,81.41881c0.53174,-0.15762 0.57861,-0.2773 0.99756,-0.10225c0.75732,1.32776 6.11719,10.74865 6.24023,11.51185c-1.27588,0.438 -3.52881,1.1426 -4.69336,1.64417l-0.0293,-1.34358l-0.3208,-0.06533c0.01172,1.1218 0.07764,3.02496 -0.08496,4.06356c-1.97021,1.34461 -4.36084,3.1026 -6.32959,4.34833c-3.17139,0.10474 -2.25,-0.07515 -4.83252,-0.51373c-0.15674,-0.52926 -0.18457,-0.87892 0.01025,-1.35882c-0.25342,-0.22881 -0.38086,-0.27437 -0.68848,-0.43082c0.12891,-0.5691 0.40576,-1.36746 0.58447,-1.94271l-0.62842,-0.01362c-0.36035,-0.34527 -0.29443,-0.61554 -0.3999,-1.2031c-0.05127,-2.03398 -0.01465,-4.12918 -0.00439,-6.16902c0.46289,-0.4484 0.41748,-0.28448 0.58154,-0.85314c-0.1084,-0.46085 -0.2959,-0.55284 -0.66211,-0.86486c-0.1626,-0.39713 -0.09814,-1.76385 -0.09375,-2.27392l0.15088,0.00088c3.34131,-1.424 6.82764,-3.13996 10.20264,-4.43388z" fill="#42afc1"/><path d="M152.67041,98.71486c3.46875,-1.23972 6.91113,-2.55181 10.32568,-3.93538c-0.01611,0.87145 -0.00146,1.48113 0.0498,2.34775c-1.97021,1.34461 -4.36084,3.1026 -6.32959,4.34833c-3.17139,0.10474 -2.25,-0.07515 -4.83252,-0.51373c-0.15674,-0.52926 -0.18457,-0.87892 0.01025,-1.35882c0.16992,-0.14839 0.60645,-0.68805 0.77637,-0.88815z" fill="#369cc4"/><path d="M151.79004,97.22948c1.38574,-4.76699 1.07373,-4.32958 4.6875,-7.84527l0.25635,0.20098l-0.10254,0.1229c-2.58398,3.06715 -3.44092,2.52705 -4.31543,7.36978l0.25635,0.23907c1.20703,-0.17754 2.61768,-2.85987 3.46436,-3.8513l2.55469,-0.05112l0.14648,0.53805c-0.87598,-0.02725 -1.70215,-0.05156 -2.58105,-0.03706c-0.90381,1.21892 -2.73193,3.56521 -3.48633,4.79936c-0.16992,0.2001 -0.60645,0.73976 -0.77637,0.88815c-0.25342,-0.22881 -0.38086,-0.27437 -0.68848,-0.43082c0.12891,-0.5691 0.40576,-1.36746 0.58447,-1.94271z" fill="#bffaf9"/><path d="M156.47754,89.3842c0.04834,-0.51725 0.02344,-0.78678 0.38525,-1.17058c0.52002,-0.19512 0.29883,-0.1878 0.8335,-0.02549c0.33398,0.39171 0.25635,0.20552 0.31494,0.6983c-0.36768,0.66652 -0.54053,0.63678 -1.27734,0.69874z" fill="#f5fbfb"/><path d="M163.13086,93.06367c-0.33545,-0.28096 -0.49951,-0.37193 -0.59912,-0.80876c0.12451,-0.45455 0.01611,-0.29576 0.42188,-0.58639c0.60498,-0.06475 0.38232,-0.10899 0.89502,0.10635c0.32666,0.69362 0.09961,0.82384 -0.39697,1.35413z" fill="#f5fbfb"/><path d="M158.59131,93.41451c0.33984,-0.32051 0.47607,-0.50831 0.94922,-0.55196c0.48633,0.17578 0.3252,0.04336 0.59326,0.50963c-0.02344,0.58287 0.05566,0.39669 -0.23145,0.80773c-0.52295,0.18194 -0.70166,0.14429 -1.16455,-0.22735z" fill="#f5fbfb"/><path d="M170.78174,66.15293l0.24902,-0.08071c0.42627,2.53203 1.21143,7.81817 1.84424,10.08799c-1.39307,3.49577 -2.51807,7.09262 -3.36328,10.7592c-0.32666,1.45418 -0.86133,4.69052 -1.24365,5.90256l-0.09375,0.00645c-0.12305,-0.7632 -5.48291,-10.18409 -6.24023,-11.51185c-0.41895,-0.17505 -0.46582,-0.05537 -0.99756,0.10225l-0.75,-0.20552c1.24219,-1.27561 2.75537,-3.69778 3.77783,-5.20836c2.26611,-3.35295 4.32129,-6.65961 6.81738,-9.852z" fill="#369cc4"/><path d="M161.0625,67.74378c2.47852,-0.32579 6.49805,-1.74774 9.02197,-1.59305c-3.24316,2.36899 -6.47314,4.75703 -9.68848,7.16425c-1.25244,0.95143 -3.96533,3.21393 -5.21191,3.9323c-0.50684,0.29239 -4.42236,1.07243 -5.42871,1.35735l-0.36621,-0.39932c0.43506,-1.11023 -0.16553,-2.52764 0.29297,-3.52756c0.13623,-0.29752 0.55225,-0.30528 0.92578,-0.39317c7.3667,-0.46817 5.63818,-2.39683 10.45459,-6.5408z" fill="#2580ba"/><path d="M128.91665,65.63671c3.3208,0.54786 7.14243,1.10774 10.38691,1.87709c1.64399,1.88807 3.62432,4.76523 5.96807,5.59318c1.35923,0.48004 2.97495,0.71632 4.31089,1.18904l1.02539,-0.01143c-0.37354,0.08789 -0.78955,0.09566 -0.92578,0.39317c-0.4585,0.99992 0.14209,2.41733 -0.29297,3.52756l0.36621,0.39932c-0.05713,1.09924 -0.30029,5.69513 0.13623,6.41585c0.60205,0.40533 0.54199,0.24771 0.84229,0.83219l-0.15088,-0.00088l-10.73672,-4.94014c-2.16797,3.10304 -4.25332,8.27844 -6.42173,11.69379l-0.08643,0.0022c-1.08311,-2.43286 -2.37114,-6.47913 -3.35845,-9.07225c-0.76406,-2.00673 -2.23696,-5.74025 -2.7561,-7.61294c0.2877,-1.24778 1.56401,-8.95799 1.42925,-9.85317l0.10063,-0.06387l0.14678,-0.19541z" fill="#2f61b4"/><path d="M128.75347,66.00542c1.46792,0.67267 8.98184,12.80929 11.09282,14.90625c-2.16797,3.10304 -4.25332,8.27844 -6.42173,11.69379l-0.08643,0.0022c-1.08311,-2.43286 -2.37114,-6.47913 -3.35845,-9.07225c-0.76406,-2.00673 -2.23696,-5.74025 -2.7561,-7.61294c0.2877,-1.24778 1.56401,-8.95799 1.42925,-9.85317z" fill="#42afc1"/><path d="M128.91665,65.63671c3.3208,0.54786 7.14243,1.10774 10.38691,1.87709c1.64399,1.88807 3.62432,4.76523 5.96807,5.59318c1.35923,0.48004 2.97495,0.71632 4.31089,1.18904l1.02539,-0.01143c-0.37354,0.08789 -0.78955,0.09566 -0.92578,0.39317c-0.4585,0.99992 0.14209,2.41733 -0.29297,3.52756c-1.42822,-0.68952 -3.41675,-1.02658 -4.65645,-1.82245c-1.28174,-0.82282 -2.66631,-1.88339 -3.9334,-2.76802c-2.68916,-1.88983 -5.41025,-3.73367 -8.1624,-5.53048c-0.91948,-0.59708 -2.79565,-1.86097 -3.73667,-2.27436z" fill="#2577b3"/><path d="M139.84629,80.91167l10.73672,4.94014c-0.00439,0.51007 -0.06885,1.8768 0.09375,2.27392c0.36621,0.31202 0.55371,0.40401 0.66211,0.86486c-0.16406,0.56866 -0.11865,0.40474 -0.58154,0.85314c-0.01025,2.03984 -0.04687,4.13504 0.00439,6.16902c0.10547,0.58756 0.03955,0.85783 0.3999,1.2031l0.62842,0.01362c-0.17871,0.57526 -0.45557,1.37361 -0.58447,1.94271c0.30762,0.15645 0.43506,0.20201 0.68848,0.43082c-0.19482,0.47989 -0.16699,0.82956 -0.01025,1.35882l-0.38672,0.31993l0.00293,0.46627l-0.3457,0.07573l-0.41016,-0.35318l-0.44238,0.24024l-0.28125,-0.09375l-0.36621,-0.44225l-0.03516,-0.26353c-0.24316,0.03106 -1.1748,0.30338 -1.50146,0.37647c-1.18945,0.2669 -2.05063,0.23995 -3.26206,0.19937c-2.12461,-1.41331 -4.38384,-2.91876 -6.44854,-4.3996c-0.24668,-0.85285 -0.14824,-3.12941 -0.12334,-4.1119c-0.09624,0.01934 -0.19541,0.01919 -0.2915,-0.00044c0.01831,0.84347 0.10986,3.57092 -0.06694,4.23143c-0.13008,-0.70739 -0.07881,-2.06401 -0.07397,-2.82955c-1.44097,-0.56149 -2.89233,-1.09616 -4.35322,-1.60389l-0.07354,-0.16773c2.16841,-3.41535 4.25376,-8.59075 6.42173,-11.69379z" fill="#6ccecc"/><path d="M138.40063,94.55931c2.27271,0.87013 8.99634,3.24484 10.54468,4.31508c0.14355,0.17359 0.42773,0.54537 0.59326,0.65846c0.22266,0.4544 0.13037,0.87043 0.08057,1.37845c-0.24316,0.03106 -1.1748,0.30338 -1.50146,0.37647c-1.18945,0.2669 -2.05063,0.23995 -3.26206,0.19937c-2.12461,-1.41331 -4.38384,-2.91876 -6.44854,-4.3996c0.06621,-0.95788 0.03911,-1.57943 -0.00645,-2.52822z" fill="#42afc1"/><path d="M145.0106,89.33703c5.05679,5.04048 2.8229,3.528 5.25161,9.44477c0.17139,-2.88565 0.12598,-5.97419 0.15088,-8.88431l0.34424,-0.05376c-0.01025,2.03984 -0.04687,4.13504 0.00439,6.16902c0.10547,0.58756 0.03955,0.85783 0.3999,1.2031l0.62842,0.01362c-0.17871,0.57526 -0.45557,1.37361 -0.58447,1.94271c0.30762,0.15645 0.43506,0.20201 0.68848,0.43082c-0.19482,0.47989 -0.16699,0.82956 -0.01025,1.35882l-0.38672,0.31993l0.00293,0.46627l-0.3457,0.07573l-0.41016,-0.35318l-0.44238,0.24024l-0.28125,-0.09375l-0.36621,-0.44225l-0.03516,-0.26353c0.0498,-0.50802 0.14209,-0.92404 -0.08057,-1.37845c-0.16553,-0.11309 -0.44971,-0.48487 -0.59326,-0.65846c-1.16748,-1.65238 -2.4375,-3.32702 -3.64556,-4.95772l-2.50049,-0.06607l0.07471,-0.41558c0.53965,-0.06548 1.96113,0.00645 2.5667,0.02168c0.95229,0.97546 2.50122,4.00672 3.65405,4.2723c0.47461,-1.01003 -1.47803,-5.56007 -2.53271,-6.35301c-0.93955,-0.70709 -1.40918,-1.91547 -2.77939,-2.0161z" fill="#bffaf9"/><path d="M149.53857,99.53284c0.40137,-0.3003 0.27539,-0.13741 0.45117,-0.65201c0.25928,0.05391 0.46875,0.08526 0.73242,0.12071l0.2373,0.38702c0.05273,-0.04351 0.21387,-0.16802 0.24609,-0.21636c0.30762,0.15645 0.43506,0.20201 0.68848,0.43082c-0.19482,0.47989 -0.16699,0.82956 -0.01025,1.35882l-0.38672,0.31993l0.00293,0.46627l-0.3457,0.07573l-0.41016,-0.35318l-0.44238,0.24024l-0.28125,-0.09375l-0.36621,-0.44225l-0.03516,-0.26353c0.0498,-0.50802 0.14209,-0.92404 -0.08057,-1.37845z" fill="#f5fbfb"/><path d="M150.76172,96.01275c0.10547,0.58756 0.03955,0.85783 0.3999,1.2031l0.62842,0.01362c-0.17871,0.57526 -0.45557,1.37361 -0.58447,1.94271c-0.03223,0.04834 -0.19336,0.17286 -0.24609,0.21636l-0.2373,-0.38702c0.07031,-0.68849 0.03516,-2.23994 0.03955,-2.98878z" fill="#56c3cb"/><path d="M142.79927,93.8506c-0.45249,0.42349 -0.62856,0.49234 -1.19971,0.37926c-0.35801,-0.43463 -0.26689,-0.22207 -0.30923,-0.82633c0.24653,-0.46715 0.09565,-0.33326 0.55195,-0.52545c0.48911,0.01831 0.66709,0.2398 1.03169,0.55694z" fill="#f5fbfb"/><path d="M150.41309,89.89749c-0.43506,-0.46817 -0.50977,-0.559 -0.52148,-1.11199c0.22266,-0.40123 0.38086,-0.44019 0.78516,-0.65978c0.36621,0.31202 0.55371,0.40401 0.66211,0.86486c-0.16406,0.56866 -0.11865,0.40474 -0.58154,0.85314z" fill="#f5fbfb"/><path d="M143.78262,89.35989c-0.08906,-0.09317 -0.2395,-0.35172 -0.31641,-0.47359c0.0397,-0.55416 -0.04526,-0.35479 0.30249,-0.76027c0.49175,-0.14444 0.28066,-0.14019 0.81284,0.03237c0.42847,0.54142 0.3041,0.4232 0.42905,1.17864z" fill="#f5fbfb"/><path d="M137.99224,92.97519c-0.37031,-0.07559 -0.623,-0.41939 -0.58477,-0.79528c0.03838,-0.37589 0.35522,-0.66154 0.73301,-0.66095c0.37793,0.00073 0.69375,0.28755 0.73066,0.66359c0.03706,0.37603 -0.21694,0.71881 -0.5874,0.79308c-0.09624,0.01934 -0.19541,0.01919 -0.2915,-0.00044z" fill="#f5fbfb"/><path d="M168.17432,92.82841l0.09375,-0.00645c0.05566,3.00577 0.20508,6.33089 0.31055,9.32641c0.04541,1.30564 0.05713,7.83399 0.29297,8.68113l0.05713,0.31978l-0.01611,0.12788l-0.31494,0.22383c-1.21289,0.37867 -3.62256,2.03866 -4.80322,2.79761l-8.36865,5.36407c-1.39746,0.90793 -3.3457,2.3167 -4.76807,3.05016c1.4458,-1.99677 3.9126,-6.70326 5.34375,-9.03578c4.2041,-6.85766 8.19141,-13.8618 12.17285,-20.84866z" fill="#2580ba"/><path d="M133.4981,92.77319c1.46089,0.50772 2.91226,1.0424 4.35322,1.60389c-0.00483,0.76554 -0.0561,2.12216 0.07397,2.82955c0.17681,-0.66051 0.08525,-3.38796 0.06694,-4.23143c0.09609,0.01963 0.19526,0.01978 0.2915,0.00044c-0.0249,0.98249 -0.12334,3.25905 0.12334,4.1119c2.0647,1.48084 4.32393,2.98629 6.44854,4.3996c1.21143,0.04058 2.07261,0.06753 3.26206,-0.19937c0.32666,-0.0731 1.2583,-0.34542 1.50146,-0.37647l0.03516,0.26353l0.36621,0.44225l0.28125,0.09375l0.44238,-0.24024c-0.19922,1.06291 -0.08496,4.44003 -0.10693,5.78068c-0.07764,5.04341 0.12744,10.14615 -0.09082,15.18751c-2.07861,-3.01295 -5.27505,-8.96312 -7.20205,-12.27886l-5.5998,-9.81655c-1.31528,-2.28286 -3.12275,-5.24468 -4.24644,-7.57017z" fill="#42afc1"/><path d="M137.99224,92.97519c0.09609,0.01963 0.19526,0.01978 0.2915,0.00044c-0.0249,0.98249 -0.12334,3.25905 0.12334,4.1119c2.0647,1.48084 4.32393,2.98629 6.44854,4.3996c1.21143,0.04058 2.07261,0.06753 3.26206,-0.19937c0.32666,-0.0731 1.2583,-0.34542 1.50146,-0.37647l0.03516,0.26353c-0.76025,0.2691 -1.5293,0.51593 -2.3042,0.74035c-0.48193,0.51607 -1.11313,1.15535 -1.54146,1.69632c-0.00674,0.89167 0.03032,2.99068 -0.07397,3.78479l-0.29106,0.08657l-0.0189,-3.46633c-0.34775,0.36197 -0.74282,0.83219 -1.08281,1.21482c-0.44092,0.03267 -0.93765,0.023 -1.38384,0.02578l-0.0583,-0.37149c0.17036,0.00425 0.34087,0.00088 0.51094,-0.00981c1.12192,-0.06035 2.72988,-2.1579 3.4897,-3.01207l-2.30537,-0.04087c-2.09883,-1.5532 -4.58262,-2.93517 -6.66973,-4.61625c0.17681,-0.66051 0.08525,-3.38796 0.06694,-4.23143z" fill="#bffaf9"/><path d="M148.55273,111.28332l-0.02783,-4.91055c-0.00439,-1.63568 0.27979,-3.53386 1.49561,-4.75571l0.28125,0.09375c-0.21387,0.3942 -0.92285,1.68358 -1.01367,2.04862c-0.53027,2.15439 -0.3252,5.40436 -0.26953,7.66832z" fill="#bffaf9"/><path d="M148.55273,111.28332l0.46582,0.14444c0.46289,0.45265 0.54346,0.65743 0.33984,1.23943c-0.43799,0.31026 -0.23437,0.23072 -0.78955,0.28023c-0.4585,-0.23101 -0.31934,-0.08408 -0.52441,-0.54845c-0.00439,-0.52018 0.19922,-0.70709 0.5083,-1.11565z" fill="#f5fbfb"/><path d="M142.95806,105.25713c-0.54653,0.48077 -0.64893,0.64689 -1.37769,0.47037c-0.32549,-0.38834 -0.24478,-0.1982 -0.28257,-0.73053c0.2543,-0.46173 0.10444,-0.32491 0.54961,-0.54347c0.47505,-0.03721 0.66812,0.1604 1.05234,0.43214z" fill="#f5fbfb"/><path d="M145.4436,107.48286l0.29106,-0.08657c0.48882,0.55299 0.46465,0.37603 0.60396,1.02907c-0.20977,0.43141 -0.07251,0.29883 -0.51812,0.49366c-0.61538,-0.06651 -0.40283,0.03179 -0.84185,-0.3296c-0.10503,-0.59401 -0.02373,-0.68937 0.46494,-1.10657z" fill="#f5fbfb"/><path d="M132.90132,111.43845c1.021,-0.01157 15.41851,9.72251 17.55864,11.1427c-1.22168,0.48722 -6.04907,0.17036 -7.76733,0.43946c-1.90928,0.29898 -8.98462,4.50522 -9.87437,4.28241l-0.11543,0.00366c-0.14385,-0.55987 -0.12832,-2.5959 -0.1248,-3.26213c0.01479,-2.42524 0.04438,-4.85049 0.08892,-7.27544c0.01934,-1.06936 0.10371,-4.13622 -0.08745,-5.06421l0.04556,-0.12613z" fill="#2f61b4"/><path d="M132.62505,111.57879l0.27627,-0.14033c1.16455,1.89628 3.16597,4.02049 4.37021,5.88542c-1.33374,3.38063 -3.05654,6.63031 -4.45327,9.97915l-0.11543,0.00366c-0.14385,-0.55987 -0.12832,-2.5959 -0.1248,-3.26213c0.01479,-2.42524 0.04438,-4.85049 0.08892,-7.27544c0.01934,-1.06936 0.10371,-4.13622 -0.08745,-5.06421z" fill="#42afc1"/><path d="M163.13086,93.06367l0.3208,0.06533l0.0293,1.34358l0.01172,2.77696c-2.17969,1.53665 -4.36963,3.05968 -6.56836,4.56923l-2.51074,0.02476c0.92725,1.03112 2.31592,2.99449 3.60352,3.0651c0.16992,0.00864 0.34131,0.01333 0.51123,0.01406l0.0542,0.40606c-1.67871,-0.12349 -1.58789,-0.05068 -2.7085,-1.28352c0.01172,1.0468 0.52295,4.34833 0.07764,4.92725c-0.44531,0.08394 -0.25635,0.10532 -0.73242,-0.17242c-0.64746,-1.15373 0.31787,-0.71559 0.36035,-1.77806c0.04248,-1.08269 -0.00732,-2.29736 -0.03369,-3.38312c-0.44971,-0.60382 -1.02832,-1.17776 -1.55127,-1.72577c-0.95068,-0.29327 -1.51025,-0.46539 -2.49756,-0.63136l0.38672,-0.31993c2.58252,0.43858 1.66113,0.61847 4.83252,0.51373c1.96875,-1.24573 4.35938,-3.00372 6.32959,-4.34833c0.1626,-1.03859 0.09668,-2.94176 0.08496,-4.06356z" fill="#bffaf9"/><path d="M151.5,101.74802c0.24902,0.41222 0.90381,1.48289 1.00049,1.88471c0.44531,1.85087 0.39111,5.82448 0.25342,7.66905l-0.42041,0.13828c0.03369,-2.28344 0.24756,-5.42706 -0.21826,-7.63448c-0.06738,-0.32447 -0.76465,-1.6159 -0.96094,-1.98183z" fill="#bffaf9"/><path d="M152.3335,111.44006l0.42041,-0.13828c0.49219,0.54259 0.58594,0.68131 0.42188,1.35486c-0.37793,0.29869 -0.19922,0.21534 -0.73828,0.26543c-0.48047,-0.22647 -0.33252,-0.08042 -0.56543,-0.5401c0.10107,-0.61759 0.05273,-0.42174 0.46143,-0.94191z" fill="#f5fbfb"/><path d="M158.52832,104.9227c0.36621,-0.29063 0.54053,-0.49234 1.01367,-0.47799c0.44385,0.21665 0.30615,0.07705 0.51563,0.52545c-0.06006,0.5631 0.0293,0.36285 -0.30908,0.77741c-0.59473,0.11221 -0.71484,0.046 -1.16602,-0.41881z" fill="#f5fbfb"/><path d="M118.63608,25.5427c-0.49204,-2.57774 0.8874,-5.86931 1.65571,-8.34685c0.70386,-2.26909 1.42939,-4.69717 2.23169,-6.9257l0.21855,-0.05416l0.33779,0.339c3.38071,2.88759 6.63062,5.9739 9.84902,9.03753c1.80425,1.71742 2.64609,3.61794 3.7522,5.80178c1.60444,2.9797 3.01641,6.19216 4.71064,9.11092l-0.03662,0.19615c-2.17427,3.03522 -4.64502,7.36289 -6.58652,10.60216l-0.01787,0.05933c-1.40229,1.73998 -2.78804,3.49314 -4.15693,5.25933c-0.49482,0.63253 -1.76045,2.306 -2.27534,2.77623l-0.22163,0.33179c-0.08188,-1.07053 -2.88384,-4.09828 -3.75659,-5.26256c-1.23472,-1.54266 -3.075,-3.36642 -3.86367,-5.17598c-0.51899,-1.19094 -1.61997,-15.48151 -1.84043,-17.74899z" fill="#2580ba"/><path d="M118.63608,25.5427c-0.49204,-2.57774 0.8874,-5.86931 1.65571,-8.34685c0.70386,-2.26909 1.42939,-4.69717 2.23169,-6.9257l0.21855,-0.05416l0.33779,0.339c3.38071,2.88759 6.63062,5.9739 9.84902,9.03753c1.80425,1.71742 2.64609,3.61794 3.7522,5.80178c1.60444,2.9797 3.01641,6.19216 4.71064,9.11092l-0.03662,0.19615c-2.17427,3.03522 -4.64502,7.36289 -6.58652,10.60216c-0.95068,-5.02437 -1.65103,-10.12842 -2.46519,-15.17872c-0.15703,-0.97443 -0.27407,-1.9496 -0.50757,-2.90982l-0.18193,-0.40694c-4.27178,-1.0238 -8.74263,-2.41675 -12.95303,-3.32746c0.02124,0.72995 0.00615,1.33157 -0.02476,2.0621z" fill="#369cc4"/><path d="M118.63608,25.5427c-0.49204,-2.57774 0.8874,-5.86931 1.65571,-8.34685c0.70386,-2.26909 1.42939,-4.69717 2.23169,-6.9257l0.21855,-0.05416l0.33779,0.339c-0.00762,1.33806 7.61221,14.00697 8.53403,16.25306c-4.27178,-1.0238 -8.74263,-2.41675 -12.95303,-3.32746c0.02124,0.72995 0.00615,1.33157 -0.02476,2.0621z" fill="#2f61b4"/><path d="M124.34019,48.46767c1.3314,-0.86735 5.97305,-18.35999 7.45562,-21.25267c0.2335,0.96022 0.35054,1.93539 0.50757,2.90982c0.81416,5.0503 1.5145,10.15435 2.46519,15.17872l-0.01787,0.05933c-1.40229,1.73998 -2.78804,3.49314 -4.15693,5.25933c-0.49482,0.63253 -1.76045,2.306 -2.27534,2.77623l-0.22163,0.33179c-0.08188,-1.07053 -2.88384,-4.09828 -3.75659,-5.26256z" fill="#2f61b4"/><path d="M178.24072,10.84013c0.24609,-0.2565 0.51416,-0.55917 0.79541,-0.77023c0.89648,2.93092 1.80908,5.85693 2.73779,8.77788c0.34863,1.10598 1.19678,3.59758 1.41064,4.62504c-0.65332,3.80398 -1.64648,7.20337 -2.50049,10.89514c-0.78955,3.41242 -0.75293,7.68868 -1.43848,11.14285c-0.1084,0.80612 -1.50586,2.41865 -2.08594,3.11461c-0.97705,1.31135 -2.64551,3.22829 -3.46143,4.4371c-0.29736,-0.37677 -0.63428,-0.91306 -1.05322,-1.04343l-0.39551,0.20625c-0.52441,-0.33619 -4.71533,-5.96291 -5.43896,-6.90629l-0.07178,-0.07998c-1.66846,-2.38965 -4.97754,-8.74998 -6.64746,-10.61579l-0.02783,-0.11397c0.83789,-1.74745 2.11963,-3.94168 3.03662,-5.7445c1.23047,-1.8371 2.63672,-5.84968 4.07959,-7.40552c3.11572,-3.35793 7.61426,-7.60082 11.06104,-10.51918z" fill="#2580ba"/><path d="M178.24072,10.84013c0.24609,-0.2565 0.51416,-0.55917 0.79541,-0.77023c0.89648,2.93092 1.80908,5.85693 2.73779,8.77788c0.34863,1.10598 1.19678,3.59758 1.41064,4.62504c-4.18213,0.83893 -8.90771,2.38584 -13.19971,3.35339c-0.10254,0.22398 -0.23584,0.47242 -0.28271,0.71002c-0.88916,4.01053 -1.33008,8.62664 -2.08301,12.70221c-0.29736,1.61297 -0.47314,3.41989 -0.88037,5.00064c-1.66846,-2.38965 -4.97754,-8.74998 -6.64746,-10.61579l-0.02783,-0.11397c0.83789,-1.74745 2.11963,-3.94168 3.03662,-5.7445c1.23047,-1.8371 2.63672,-5.84968 4.07959,-7.40552c3.11572,-3.35793 7.61426,-7.60082 11.06104,-10.51918z" fill="#369cc4"/><path d="M178.24072,10.84013c0.24609,-0.2565 0.51416,-0.55917 0.79541,-0.77023c0.89648,2.93092 1.80908,5.85693 2.73779,8.77788c0.34863,1.10598 1.19678,3.59758 1.41064,4.62504c-4.18213,0.83893 -8.90771,2.38584 -13.19971,3.35339c1.12793,-2.15117 8.34814,-14.69142 8.25586,-15.98609z" fill="#2f61b4"/><path d="M169.70215,27.53624c0.74121,1.70482 1.42236,4.00452 2.04199,5.8258l3.23438,9.43788c0.48633,1.43777 1.48828,4.6479 2.18115,5.82551c-0.97705,1.31135 -2.64551,3.22829 -3.46143,4.4371c-0.29736,-0.37677 -0.63428,-0.91306 -1.05322,-1.04343l-0.39551,0.20625c-0.52441,-0.33619 -4.71533,-5.96291 -5.43896,-6.90629l-0.07178,-0.07998c0.40723,-1.58074 0.58301,-3.38767 0.88037,-5.00064c0.75293,-4.07557 1.19385,-8.69168 2.08301,-12.70221z" fill="#2f61b4"/></g></svg></svg>